<svg xmlns="http://www.w3.org/2000/svg" version="1.1" xmlns:xlink="http://www.w3.org/1999/xlink" xmlns:svgjs="http://svgjs.dev/svgjs" viewBox="0 0 11.932955270123221 7.932575039552667"><g transform="matrix(1,0,0,1,0.807391311058959,4.126228860027203)"><g><path d=" M 0.5079105295785329 0.30531700373541004 C 0.4051870516862453 0.30531700373541004 0.3110238636183151 0.3252910133255771 0.23968811508200427 0.3595321726230063 C 0.1968866659602178 0.3766527522717209 0.14267149707262158 0.3852130420960782 0.13125777730681187 0.436574781042222 C 0.13125777730681187 0.4622556505152937 0.1797660863115032 0.46510908045674615 0.19974009590167022 0.470815940339651 C 0.23968811508200427 0.47366937028110345 0.28248956420379073 0.4793762301640083 0.3195841534426724 0.4793762301640083 C 0.3195841534426724 0.4793762301640083 0.30817043367686264 0.556418838583224 0.3053170037354102 0.5935134278221057 C 0.26251555461362375 1.0015539094498034 0.14837835695552645 1.5979207672133617 0.13696463718971674 1.9745735194850826 C 0.13696463718971674 1.9945475290752497 0.13125777730681187 2.0116681087239643 0.13125777730681187 2.0316421183141316 L 0.13125777730681187 2.0430558380799413 L 0.14267149707262158 2.0116681087239643 C 0.14552492701407402 2.017374968606869 0.14837835695552645 2.0259352584312262 0.14837835695552645 2.0316421183141316 C 0.14837835695552645 2.0459092680213935 0.14267149707262158 2.0573229877872032 0.14267149707262158 2.071590137494465 C 0.13981806713116915 2.083003857260275 0.13696463718971674 2.083003857260275 0.13696463718971674 2.083003857260275 C 0.1341112072482643 2.083003857260275 0.1341112072482643 2.0801504273188227 0.1341112072482643 2.074443567435918 L 0.1341112072482643 2.063029847670108 C 0.13125777730681187 2.068736707553013 0.13125777730681187 2.083003857260275 0.13125777730681187 2.0858572872017276 C 0.1341112072482643 2.114391586616252 0.14837835695552645 2.1400724560893236 0.14837835695552645 2.1657533255623957 L 0.14837835695552645 2.174313615386753 C 0.14837835695552645 2.1857273351525626 0.16549893660424106 2.2171150645085396 0.17405922642859833 2.2228219243914444 C 0.1712057964871459 2.2256753543328966 0.1712057964871459 2.2313822142158015 0.1712057964871459 2.234235644157254 C 0.1712057964871459 2.239942504040159 0.17405922642859833 2.245649363923064 0.17405922642859833 2.251356223805969 C 0.1797660863115032 2.259916513630326 0.18261951625295564 2.2713302333961356 0.19117980607731294 2.2713302333961356 C 0.19403323601876538 2.2713302333961356 0.19974009590167022 2.2684768034546834 0.20830038572602752 2.2656233735132307 C 0.21115381566747995 2.2713302333961356 0.2140072456089324 2.274183663337588 0.2140072456089324 2.274183663337588 C 0.2140072456089324 2.2713302333961356 0.21115381566747995 2.2656233735132307 0.20830038572602752 2.2627699435717785 L 0.20830038572602752 2.251356223805969 C 0.21115381566747995 2.2570630836888737 0.21686067555038482 2.259916513630326 0.2225675354332897 2.259916513630326 C 0.2225675354332897 2.251356223805969 0.21686067555038482 2.2427959339816113 0.21686067555038482 2.2370890740987064 C 0.23112782525764697 2.2427959339816113 0.23112782525764697 2.2627699435717785 0.23683468514055184 2.2798905232204927 C 0.23683468514055184 2.259916513630326 0.23968811508200427 2.248502793864516 0.2425415450234567 2.248502793864516 C 0.24539497496490914 2.248502793864516 0.24539497496490914 2.2570630836888737 0.24539497496490914 2.2713302333961356 C 0.24824840490636157 2.2684768034546834 0.251101834847814 2.2656233735132307 0.25395526478926644 2.2656233735132307 C 0.2596621246721713 2.2656233735132307 0.26251555461362375 2.2713302333961356 0.2682224144965286 2.2798905232204927 L 0.2682224144965286 2.248502793864516 C 0.2739292743794335 2.251356223805969 0.2739292743794335 2.2656233735132307 0.2739292743794335 2.2713302333961356 C 0.27678270432088586 2.2713302333961356 0.2796361342623383 2.2684768034546834 0.2796361342623383 2.2656233735132307 C 0.2796361342623383 2.259916513630326 0.27678270432088586 2.2570630836888737 0.27678270432088586 2.2570630836888737 L 0.2881964240866956 2.251356223805969 C 0.2881964240866956 2.251356223805969 0.2881964240866956 2.2427959339816113 0.29104985402814804 2.239942504040159 C 0.29961014385250534 2.2627699435717785 0.2967567139110529 2.2684768034546834 0.30817043367686264 2.2684768034546834 L 0.30817043367686264 2.259916513630326 C 0.3110238636183151 2.2627699435717785 0.3110238636183151 2.2770370932790405 0.31673072350121995 2.2770370932790405 L 0.31673072350121995 2.2627699435717785 C 0.32529101332557725 2.2627699435717785 0.3309978732084821 2.274183663337588 0.33670473309138693 2.2798905232204927 C 0.33385130314993455 2.2713302333961356 0.3309978732084821 2.2570630836888737 0.3281444432670297 2.254209653747421 C 0.33955816303283937 2.254209653747421 0.396626761861888 2.2570630836888737 0.396626761861888 2.2713302333961356 C 0.396626761861888 2.2684768034546834 0.40233362174479287 2.2656233735132307 0.4051870516862453 2.2656233735132307 C 0.40804048162769774 2.2656233735132307 0.41089391156915017 2.2684768034546834 0.41089391156915017 2.2713302333961356 C 0.4223076313349599 2.274183663337588 0.5079105295785329 2.274183663337588 0.5193242493443426 2.274183663337588 C 0.5164708194028902 2.2713302333961356 0.5079105295785329 2.2627699435717785 0.5079105295785329 2.2570630836888737 C 0.5079105295785329 2.254209653747421 0.5107639595199853 2.251356223805969 0.5164708194028902 2.248502793864516 L 0.5221776792857951 2.259916513630326 C 0.5307379691101524 2.259916513630326 0.5278845391686999 2.2684768034546834 0.5335913990516048 2.2684768034546834 C 0.5307379691101524 2.251356223805969 0.5307379691101524 2.2427959339816113 0.5307379691101524 2.2114082046256347 C 0.5450051188174145 2.2313822142158015 0.5364448289930572 2.248502793864516 0.547858548758867 2.2627699435717785 L 0.5507119787003193 2.239942504040159 C 0.5535654086417717 2.248502793864516 0.5507119787003193 2.2627699435717785 0.5564188385832242 2.2713302333961356 L 0.5564188385832242 2.2570630836888737 C 0.5564188385832242 2.2256753543328966 0.562125698466129 2.1714601854453006 0.562125698466129 2.1343655962064187 C 0.838908402787015 2.0801504273188227 1.0129676292156133 1.8661431817098904 1.1271048268737105 1.6178947768035288 C 1.129958256815163 1.5979207672133617 1.1413719765809727 1.5836536175060996 1.1470788364638775 1.5693864677988374 C 1.1556391262882348 1.5522658881501228 1.1584925562296873 1.5294384486185033 1.1641994161125921 1.5094644390283363 C 1.1756131358784019 1.4894904294381692 1.1784665658198543 1.475223279730907 1.1784665658198543 1.46666298990655 L 1.1784665658198543 1.4523958401992876 C 1.1784665658198543 1.4381286904920256 1.1870268556442116 1.429568400667668 1.189880285585664 1.421008110843311 C 1.189880285585664 1.4124478210189535 1.1927337155271165 1.4010341012531438 1.1927337155271165 1.3924738114287867 C 1.2041474352929262 1.3239914928339283 1.209854295175831 1.249802314356165 1.209854295175831 1.1756131358784017 C 1.209854295175831 0.9302181609134927 1.1470788364638775 0.6505820266511544 1.0015539094498036 0.49649680981272293 C 0.8959770016160636 0.36523903250591117 0.6905300458314885 0.30531700373541004 0.5079105295785329 0.30531700373541004 M 0.9787264699181841 1.1156911071079008 C 0.9787264699181841 1.4181546809018584 0.8360549728455625 1.692083955281292 0.5820997080562961 1.863289751768438 C 0.5963668577635582 1.7491525541103405 0.6106340074708204 1.6464290762180531 0.6334614470024399 1.5437055983257655 C 0.6848231859485836 1.3040174832437612 0.7105040554216555 1.064329368161757 0.7504520746019896 0.8303481129626575 C 0.7647192243092518 0.7533055045434418 0.7846932338994188 0.6591423164755117 0.7846932338994188 0.5878065679392008 L 0.793253523723776 0.5792462781148435 C 0.9159510112062306 0.6734094661827739 0.9787264699181841 0.898830431557516 0.9787264699181841 1.1156911071079008 M 0.22827439531619453 1.977426949426535 C 0.22827439531619453 1.98313380930944 0.21971410549183726 2.0002543889581545 0.21971410549183726 2.0002543889581545 L 0.21971410549183726 1.98313380930944 C 0.21971410549183726 1.9660132296607253 0.2225675354332897 1.8547294619440806 0.22827439531619453 1.8461691721197233 C 0.23112782525764697 1.837608882295366 0.23112782525764697 1.8261951625295563 0.23683468514055184 1.8147814427637465 C 0.2339812551990994 1.8147814427637465 0.22827439531619453 1.817634872705199 0.22827439531619453 1.817634872705199 L 0.23683468514055184 1.8090745828808417 C 0.2339812551990994 1.8062211529393892 0.2339812551990994 1.8033677229979368 0.2339812551990994 1.8005142930564844 C 0.2339812551990994 1.791954003232127 0.2425415450234567 1.7833937134077698 0.24539497496490914 1.7748334235834125 C 0.24824840490636157 1.7748334235834125 0.251101834847814 1.7805402834663173 0.251101834847814 1.7891005732906746 C 0.251101834847814 1.817634872705199 0.2339812551990994 1.8747034715342477 0.23112782525764697 1.8861171913000572 L 0.23112782525764697 1.9688666596021778 C 0.23112782525764697 1.9745735194850826 0.22827439531619453 1.977426949426535 0.22827439531619453 1.977426949426535 M 0.1968866659602178 1.9460392200705583 C 0.1968866659602178 1.9488926500120107 0.19403323601876538 2.0116681087239643 0.18261951625295564 2.008814678782512 L 0.18261951625295564 1.9802803793679875 C 0.18261951625295564 1.9745735194850826 0.18547294619440807 1.9660132296607253 0.18547294619440807 1.963159799719273 C 0.18547294619440807 1.9545995098949156 0.18261951625295564 1.9488926500120107 0.17691265637005077 1.9488926500120107 C 0.18261951625295564 1.9346255003047488 0.1883263761358605 1.9203583505974864 0.19117980607731294 1.9060912008902244 L 0.19117980607731294 1.9146514907145815 C 0.19117980607731294 1.9175049206560342 0.19117980607731294 1.9203583505974864 0.19403323601876538 1.923211780538939 C 0.1968866659602178 1.9117980607731293 0.19974009590167022 1.9089446308316766 0.19974009590167022 1.9032377709487718 C 0.20830038572602752 1.8946774811244147 0.20830038572602752 1.8889706212415098 0.20830038572602752 1.883263761358605 C 0.20830038572602752 1.8775569014757 0.20830038572602752 1.8661431817098904 0.20544695578457509 1.8604363218269855 C 0.20830038572602752 1.8518760320026282 0.2140072456089324 1.8461691721197233 0.2140072456089324 1.8404623122368184 C 0.21686067555038482 1.8461691721197233 0.21971410549183726 1.8547294619440806 0.21971410549183726 1.863289751768438 C 0.21971410549183726 1.8946774811244147 0.20544695578457509 1.9460392200705583 0.20259352584312265 1.963159799719273 C 0.19974009590167022 1.9545995098949156 0.1968866659602178 1.9403323601876534 0.1968866659602178 1.9460392200705583 M 0.20830038572602752 1.7776868535248649 C 0.21115381566747995 1.7776868535248649 0.21686067555038482 1.7434456942274357 0.21971410549183726 1.7377388343445308 C 0.21971410549183726 1.746299124168888 0.2225675354332897 1.752005984051793 0.2225675354332897 1.7548594139932454 C 0.2225675354332897 1.7405922642859832 0.22542096537474213 1.7405922642859832 0.22542096537474213 1.7377388343445308 C 0.2225675354332897 1.7348854044030784 0.2225675354332897 1.732031974461626 0.2225675354332897 1.726325114578721 C 0.2225675354332897 1.7177648247543638 0.22542096537474213 1.7149113948129115 0.22827439531619453 1.7149113948129115 L 0.22827439531619453 1.7377388343445308 C 0.22827439531619453 1.7634197038176027 0.2225675354332897 1.7948074331735795 0.21971410549183726 1.8147814427637465 C 0.21686067555038482 1.817634872705199 0.21686067555038482 1.8204883026466514 0.21686067555038482 1.8204883026466514 C 0.21686067555038482 1.811928012822294 0.21686067555038482 1.797660863115032 0.21971410549183726 1.7891005732906746 C 0.21115381566747995 1.7891005732906746 0.21115381566747995 1.7948074331735795 0.21115381566747995 1.8005142930564844 C 0.21115381566747995 1.8062211529393892 0.21115381566747995 1.811928012822294 0.2140072456089324 1.8147814427637465 C 0.20259352584312265 1.8261951625295563 0.19117980607731294 1.857582891885533 0.1883263761358605 1.8747034715342477 L 0.1968866659602178 1.8033677229979368 C 0.19403323601876538 1.8147814427637465 0.19403323601876538 1.8233417325881038 0.18547294619440807 1.8319020224124611 L 0.21115381566747995 1.7377388343445308 C 0.21115381566747995 1.752005984051793 0.20830038572602752 1.7662731337590551 0.20830038572602752 1.7776868535248649 M 0.28248956420379073 1.9517460799534632 C 0.2796361342623383 1.9545995098949156 0.2596621246721713 1.963159799719273 0.2596621246721713 1.9660132296607253 C 0.25395526478926644 1.9660132296607253 0.25395526478926644 1.9603063697778205 0.25395526478926644 1.9603063697778205 C 0.25395526478926644 1.9603063697778205 0.251101834847814 1.9603063697778205 0.24824840490636157 1.963159799719273 L 0.251101834847814 1.9517460799534632 C 0.25395526478926644 1.9517460799534632 0.2568086947307189 1.9545995098949156 0.2568086947307189 1.957452939836368 L 0.2568086947307189 1.9488926500120107 C 0.26251555461362375 1.9460392200705583 0.2653689845550762 1.9403323601876534 0.2653689845550762 1.9346255003047488 C 0.2653689845550762 1.9317720703632961 0.26251555461362375 1.928918640421844 0.2596621246721713 1.928918640421844 C 0.26251555461362375 1.9260652104803913 0.2653689845550762 1.923211780538939 0.2653689845550762 1.9175049206560342 C 0.2653689845550762 1.9146514907145815 0.26251555461362375 1.9117980607731293 0.26251555461362375 1.9060912008902244 L 0.2682224144965286 1.9175049206560342 C 0.27107584443798105 1.9146514907145815 0.2739292743794335 1.8889706212415098 0.2739292743794335 1.8775569014757 C 0.2739292743794335 1.8718500415927952 0.27678270432088586 1.8604363218269855 0.2796361342623383 1.8518760320026282 C 0.2796361342623383 1.8747034715342477 0.28534299414524317 1.8861171913000572 0.28534299414524317 1.8889706212415098 C 0.28534299414524317 1.897530911065867 0.28248956420379073 1.9032377709487718 0.2796361342623383 1.9060912008902244 C 0.2796361342623383 1.9117980607731293 0.28248956420379073 1.9146514907145815 0.28248956420379073 1.9146514907145815 C 0.28534299414524317 1.9146514907145815 0.2881964240866956 1.9032377709487718 0.29390328396960047 1.9003843410073196 L 0.29390328396960047 1.8547294619440806 C 0.29390328396960047 1.8547294619440806 0.2967567139110529 1.8604363218269855 0.2967567139110529 1.8718500415927952 C 0.2967567139110529 1.8946774811244147 0.29104985402814804 1.9346255003047488 0.28248956420379073 1.9517460799534632 M 0.2425415450234567 1.66640308580822 C 0.23968811508200427 1.66640308580822 0.23968811508200427 1.6578427959838629 0.23968811508200427 1.6578427959838629 C 0.23968811508200427 1.6578427959838629 0.23683468514055184 1.660696225925315 0.23683468514055184 1.66640308580822 C 0.23112782525764697 1.66640308580822 0.22827439531619453 1.6635496558667677 0.22827439531619453 1.6635496558667677 C 0.22827439531619453 1.660696225925315 0.23112782525764697 1.6435756462766005 0.23968811508200427 1.6378687863936956 L 0.23968811508200427 1.6492825061595053 C 0.23968811508200427 1.652135936100958 0.23968811508200427 1.6578427959838629 0.2425415450234567 1.6578427959838629 C 0.24539497496490914 1.6578427959838629 0.2425415450234567 1.660696225925315 0.2425415450234567 1.66640308580822 M 0.17405922642859833 2.0601764177286555 C 0.17405922642859833 2.0516161279042984 0.1797660863115032 2.037348978197036 0.1797660863115032 2.0316421183141316 C 0.18261951625295564 2.0316421183141316 0.18261951625295564 2.068736707553013 0.18261951625295564 2.071590137494465 C 0.17691265637005077 2.071590137494465 0.17405922642859833 2.0658832776115603 0.17405922642859833 2.0601764177286555 M 0.1883263761358605 1.7833937134077698 C 0.1883263761358605 1.7748334235834125 0.18547294619440807 1.7691265637005076 0.18547294619440807 1.7662731337590551 C 0.18547294619440807 1.7634197038176027 0.1883263761358605 1.7605662738761503 0.1968866659602178 1.7605662738761503 C 0.1968866659602178 1.77197999364196 0.19117980607731294 1.7776868535248649 0.1883263761358605 1.7833937134077698 M 0.21971410549183726 1.6464290762180531 C 0.21971410549183726 1.6407222163351483 0.2225675354332897 1.6321619265107907 0.22827439531619453 1.6293084965693385 C 0.22827439531619453 1.6435756462766005 0.2225675354332897 1.6492825061595053 0.2225675354332897 1.6578427959838629 C 0.21971410549183726 1.6549893660424102 0.21971410549183726 1.6492825061595053 0.21971410549183726 1.6464290762180531 M 0.2568086947307189 2.074443567435918 C 0.2568086947307189 2.071590137494465 0.2596621246721713 2.068736707553013 0.26251555461362375 2.068736707553013 C 0.26251555461362375 2.074443567435918 0.26251555461362375 2.083003857260275 0.2596621246721713 2.0858572872017276 C 0.2596621246721713 2.083003857260275 0.2568086947307189 2.07729699737737 0.2568086947307189 2.074443567435918 M 2.3226571404338143 1.6350153564522434 C 2.3369242901410767 1.612187916920624 2.3483380099068865 1.5893604773890044 2.365458589555601 1.5722398977402898 L 2.3911394590286728 1.5351453085014082 C 2.396846318911578 1.5351453085014082 2.396846318911578 1.5322918785599557 2.396846318911578 1.5294384486185033 C 2.3996997488530303 1.5237315887355984 2.405406608735935 1.5237315887355984 2.408260038677388 1.5180247288526936 C 2.405406608735935 1.520878158794146 2.405406608735935 1.5237315887355984 2.405406608735935 1.5265850186770509 C 2.405406608735935 1.5265850186770509 2.3996997488530303 1.5351453085014082 2.396846318911578 1.540852168384313 C 2.3939928889701254 1.546559028267218 2.3911394590286728 1.546559028267218 2.3882860290872205 1.5494124582086704 C 2.371165449438506 1.5693864677988374 2.359751729672696 1.5950673372719093 2.359751729672696 1.6007741971548142 C 2.359751729672696 1.6036276270962664 2.371165449438506 1.5893604773890044 2.371165449438506 1.5893604773890044 C 2.3854325991457683 1.5722398977402898 2.425380618326102 1.5123178689697887 2.4282340482675546 1.5066110090868838 C 2.451061487799174 1.4837835695552644 2.4310874782090073 1.475223279730907 2.4539149177406268 1.4695164198480022 L 2.4653286375064365 1.4438355503749305 C 2.4738889273307936 1.421008110843311 2.4795957872136984 1.4010341012531438 2.4795957872136984 1.381060091662977 C 2.4795957872136984 1.3724998018386194 2.4795957872136984 1.3639395120142623 2.4767423572722462 1.3525257922484526 C 2.4738889273307936 1.3439655024240953 2.4539149177406268 1.2983106233608563 2.442501197974817 1.2983106233608563 C 2.416820328501745 1.2983106233608563 2.3939928889701254 1.3496723623070002 2.3939928889701254 1.3496723623070002 C 2.285562551194933 1.5351453085014082 1.9802455474595229 1.8946774811244147 1.9317372384548315 1.8889706212415098 C 1.9032029390403071 1.8861171913000572 1.8974960791574023 1.5750933276817423 1.8974960791574023 1.3782066617215243 L 1.8974960791574023 1.249802314356165 C 1.8974960791574023 1.2412420245318077 1.9003495090988547 1.2355351646489028 1.9003495090988547 1.229828304765998 L 1.9003495090988547 1.2098542951758309 C 1.9003495090988547 1.1898802855856638 1.9032029390403071 1.1870268556442114 1.9060563689817596 1.169906275995497 C 1.9060563689817596 1.1556391262882348 1.8946426492159498 1.1584925562296873 1.8946426492159498 1.1413719765809727 C 1.908909798923212 1.1413719765809727 1.9174700887475693 1.1356651166980678 1.9231769486304742 1.129958256815163 C 1.9231769486304742 1.129958256815163 1.9260303785719266 1.124251396932258 1.9260303785719266 1.1185445370493532 C 1.9260303785719266 1.0814499478104715 1.7805054515578527 1.0557690783373996 1.7548245820847808 1.0557690783373996 C 1.7291437126117088 1.0557690783373996 1.7063162730800894 1.0614759382203045 1.6863422634899223 1.0700362280446618 C 1.4609212981151802 1.1756131358784017 1.3039826513352966 1.5294384486185033 1.2897155016280344 1.7634197038176027 C 1.2897155016280344 1.811928012822294 1.3039826513352966 1.857582891885533 1.346784100457083 1.8861171913000572 C 1.3696115399887023 1.9032377709487718 1.3952924094617742 1.9089446308316766 1.4209732789348462 1.9089446308316766 C 1.4380938585835608 1.9089446308316766 1.452361008290823 1.9060912008902244 1.466628157998085 1.9003843410073196 C 1.4866021675882521 1.8889706212415098 1.4894555975297046 1.8718500415927952 1.5094296071198716 1.8518760320026282 C 1.5493776263002057 1.857582891885533 1.6949025533142796 1.5893604773890044 1.7377040024360662 1.4466889803163827 C 1.7377040024360662 1.4438355503749305 1.743410862318971 1.4238615407847632 1.749117722201876 1.4181546809018584 C 1.7462642922604235 1.460956130023645 1.743410862318971 1.5123178689697887 1.743410862318971 1.566533037857385 C 1.743410862318971 1.6806702355154823 1.7462642922604235 1.9802803793679875 1.9231769486304742 1.9802803793679875 C 1.934590668396284 1.9802803793679875 1.9431509582206412 1.977426949426535 1.954564677986451 1.9745735194850826 C 1.9773921175180704 1.9745735194850826 1.9916592672253326 1.9745735194850826 2.014486706756952 1.9688666596021778 C 2.0572881558787386 1.9488926500120107 2.074408735527453 1.9517460799534632 2.1029430349419775 1.9175049206560342 C 2.1143567547077873 1.9003843410073196 2.125770474473597 1.897530911065867 2.1371841942394063 1.891824051182962 C 2.148597914005216 1.8861171913000572 2.2370542421902417 1.7776868535248649 2.2370542421902417 1.7776868535248649 C 2.2427611020731466 1.7691265637005076 2.2541748218389563 1.7577128439346978 2.257028251780409 1.7491525541103405 C 2.259881681721861 1.752005984051793 2.271295401487671 1.7348854044030784 2.2684419715462187 1.7348854044030784 C 2.274148831429123 1.7234716846372686 2.2941228410192904 1.706351104988554 2.3055365607851 1.6892305253398394 C 2.3055365607851 1.6806702355154823 2.319803710492362 1.6721099456911248 2.319803710492362 1.6721099456911248 L 2.3283640003167196 1.660696225925315 C 2.3283640003167196 1.660696225925315 2.3397777200825294 1.620748206744981 2.3426311500239816 1.6178947768035288 C 2.3369242901410767 1.6150413468620761 2.325510570375267 1.6321619265107907 2.3226571404338143 1.6350153564522434 M 1.4495075783493705 1.8033677229979368 C 1.492309027471157 1.6549893660424102 1.6692216838412077 1.2355351646489028 1.809039750972377 1.1670528460540446 C 1.8004794611480195 1.1727597059369494 1.7605314419676856 1.2184145850001882 1.7576780120262332 1.24409545447326 C 1.6463942443095883 1.4466889803163827 1.5664982059489203 1.6036276270962664 1.4580678681737278 1.8005142930564844 C 1.4580678681737278 1.8005142930564844 1.452361008290823 1.8033677229979368 1.4495075783493705 1.8033677229979368 M 2.257028251780409 1.6578427959838629 C 2.2484679619560515 1.66640308580822 2.239907672131694 1.6892305253398394 2.228493952365884 1.6892305253398394 C 2.228493952365884 1.6892305253398394 2.2456145320145993 1.6321619265107907 2.259881681721861 1.6321619265107907 C 2.259881681721861 1.6350153564522434 2.2627351116633134 1.6236016366864336 2.265588541604766 1.620748206744981 C 2.2684419715462187 1.6178947768035288 2.265588541604766 1.6036276270962664 2.2798556913120285 1.6036276270962664 C 2.2798556913120285 1.606481057037719 2.2827091212534807 1.6093344869791713 2.2827091212534807 1.612187916920624 C 2.2827091212534807 1.6236016366864336 2.265588541604766 1.6264550666278859 2.265588541604766 1.6378687863936956 C 2.265588541604766 1.6464290762180531 2.2627351116633134 1.6435756462766005 2.257028251780409 1.6578427959838629 M 2.2541748218389563 1.692083955281292 C 2.2541748218389563 1.692083955281292 2.2541748218389563 1.6892305253398394 2.2484679619560515 1.6835236654569345 C 2.257028251780409 1.6692565157496726 2.274148831429123 1.652135936100958 2.285562551194933 1.6407222163351483 C 2.2884159811363856 1.6435756462766005 2.291269411077838 1.6464290762180531 2.291269411077838 1.6492825061595053 C 2.291269411077838 1.652135936100958 2.2884159811363856 1.6549893660424102 2.285562551194933 1.6578427959838629 C 2.2798556913120285 1.66640308580822 2.277002261370576 1.6749633756325775 2.265588541604766 1.6806702355154823 L 2.2684419715462187 1.6721099456911248 C 2.265588541604766 1.6721099456911248 2.257028251780409 1.692083955281292 2.2541748218389563 1.692083955281292 M 1.68348883354847 1.429568400667668 C 1.6806354036070175 1.429568400667668 1.6720751137826602 1.4381286904920256 1.6720751137826602 1.435275260550573 C 1.6720751137826602 1.426714970726216 1.6863422634899223 1.3981806713116915 1.6891956934313748 1.395327241370239 C 1.6949025533142796 1.395327241370239 1.7063162730800894 1.381060091662977 1.7091697030215418 1.3782066617215243 L 1.703462843138637 1.395327241370239 C 1.703462843138637 1.4010341012531438 1.6863422634899223 1.429568400667668 1.68348883354847 1.429568400667668 M 1.637833954485231 1.5294384486185033 C 1.6349805245437785 1.5294384486185033 1.6207133748365163 1.5322918785599557 1.6207133748365163 1.5379987384428606 C 1.6207133748365163 1.520878158794146 1.637833954485231 1.5123178689697887 1.6463942443095883 1.5037575791454314 C 1.657807964075398 1.495197289321074 1.6635148239583029 1.4894904294381692 1.6663682538997553 1.4894904294381692 C 1.6692216838412077 1.4894904294381692 1.6663682538997553 1.4980507192625265 1.6549545341339456 1.5066110090868838 C 1.6492476742510407 1.5123178689697887 1.6492476742510407 1.5265850186770509 1.637833954485231 1.5294384486185033 M 1.6720751137826602 1.4638095599650973 C 1.6720751137826602 1.480930139613812 1.6492476742510407 1.4980507192625265 1.6406873844266834 1.500904149203979 C 1.6463942443095883 1.4894904294381692 1.6521011041924931 1.4723698497894548 1.6521011041924931 1.4780767096723597 C 1.6549545341339456 1.4638095599650973 1.6720751137826602 1.4695164198480022 1.6720751137826602 1.4638095599650973 M 2.239907672131694 1.7548594139932454 C 2.239907672131694 1.7434456942274357 2.2427611020731466 1.7405922642859832 2.2484679619560515 1.7405922642859832 C 2.2427611020731466 1.7377388343445308 2.2427611020731466 1.7348854044030784 2.2427611020731466 1.732031974461626 C 2.2513213918975037 1.7092045349300067 2.265588541604766 1.7034976750471018 2.271295401487671 1.6863770953983872 C 2.271295401487671 1.7006442451056492 2.265588541604766 1.7034976750471018 2.2627351116633134 1.7092045349300067 C 2.259881681721861 1.726325114578721 2.2541748218389563 1.7348854044030784 2.2484679619560515 1.7405922642859832 M 2.31695028055091 1.5437055983257655 L 2.331217430258172 1.5437055983257655 C 2.3283640003167196 1.546559028267218 2.2998297009021953 1.5722398977402898 2.2998297009021953 1.5693864677988374 C 2.2998297009021953 1.566533037857385 2.2969762709607426 1.56082617797448 2.2969762709607426 1.5579727480330277 L 2.3083899907265524 1.5579727480330277 C 2.3083899907265524 1.5494124582086704 2.311243420668005 1.5494124582086704 2.31695028055091 1.5437055983257655 M 1.7519711521433283 1.3182846329510234 C 1.7462642922604235 1.3296983527168331 1.7377040024360662 1.3382586425411904 1.7348505724946137 1.335405212599738 L 1.743410862318971 1.3239914928339283 C 1.7462642922604235 1.3268449227753807 1.7519711521433283 1.3182846329510234 1.7519711521433283 1.3182846329510234 M 1.6720751137826602 1.5066110090868838 C 1.6720751137826602 1.5066110090868838 1.6749285437241126 1.5123178689697887 1.6749285437241126 1.5151712989112411 C 1.6692216838412077 1.5151712989112411 1.6635148239583029 1.5237315887355984 1.6635148239583029 1.5237315887355984 C 1.6635148239583029 1.5180247288526936 1.6692216838412077 1.5094644390283363 1.6720751137826602 1.5066110090868838 M 1.6663682538997553 1.5294384486185033 L 1.6863422634899223 1.5123178689697887 C 1.68348883354847 1.520878158794146 1.6720751137826602 1.5265850186770509 1.6663682538997553 1.5294384486185033 M 2.510924998963454 2.128658736323514 C 2.510924998963454 2.162899895620943 2.536605868436526 2.19428762497692 2.550873018143788 2.1971410549183723 C 2.550873018143788 2.1828739052111104 2.5537264480852406 2.162899895620943 2.5537264480852406 2.1429258860307763 C 2.5651401678510504 2.168606755503848 2.5679935977925026 2.19428762497692 2.5708470277339552 2.1914341950354674 C 2.5708470277339552 2.1828739052111104 2.57655388761686 2.174313615386753 2.5794073175583123 2.162899895620943 C 2.6507430660946234 1.6492825061595053 2.707811664923672 1.2612160341219747 2.7648802637527203 0.7190643452460126 C 2.7991214230501495 0.7133574853631077 2.958913499771486 0.7047971955387504 3.001714948893272 0.7047971955387504 C 2.99886151895182 0.6962369057143931 2.9903012291274624 0.6933834757729407 2.9903012291274624 0.6933834757729407 C 3.007421808776177 0.6933834757729407 3.0302492483077965 0.6648491763584166 3.044516398015059 0.6648491763584166 C 2.9845943692445576 0.6163408673537252 2.8704571715864606 0.6106340074708203 2.7791474134599827 0.6106340074708203 C 2.7848542733428876 0.5307379691101521 2.8048282829330544 0.44513507086657933 2.8048282829330544 0.3167307235012198 C 2.8048282829330544 0.28248956420379057 2.8048282829330544 0.2511018348478138 2.7991214230501495 0.2254209653747421 C 2.8048282829330544 0.21400724560893236 2.8048282829330544 0.20544695578457484 2.8048282829330544 0.19974009590166997 C 2.8048282829330544 0.14267149707262128 2.676423935567695 0.13125777730681154 2.627915626563004 0.13125777730681154 C 2.57655388761686 0.13125777730681154 2.5194852887878114 0.14552492701407393 2.499511279197644 0.20544695578457484 C 2.4681235498416676 0.30531700373541004 2.4481495402515003 0.5278845391686997 2.4281755306613335 0.602073717646463 C 2.371106931832285 0.6049271475879154 2.1999011353451388 0.6077805775293679 2.1999011353451388 0.6277545871195349 C 2.1999011353451388 0.6933834757729407 2.314038333003236 0.7162109153045602 2.391080941422452 0.7162109153045602 L 2.411054951012619 0.7162109153045602 C 2.3682535018908326 1.0900102376348288 2.3482794923006653 1.395327241370239 2.319745192886141 1.7805402834663173 C 2.319745192886141 1.8005142930564844 2.316891762944689 1.8233417325881038 2.316891762944689 1.8433157421782709 C 2.316891762944689 1.9089446308316766 2.3283054827104985 2.1315121662649665 2.345426062359213 2.1315121662649665 C 2.3482794923006653 2.1315121662649665 2.345426062359213 2.0801504273188227 2.35398635218357 2.0801504273188227 C 2.36540007194938 2.0801504273188227 2.3625466420079277 2.1258053063820617 2.3796672216566424 2.1315121662649665 C 2.3796672216566424 2.1115381566747993 2.3796672216566424 2.0972710069675373 2.3882275114809994 2.0858572872017276 C 2.3882275114809994 2.0858572872017276 2.396787801305357 2.168606755503848 2.4082015210711667 2.168606755503848 C 2.4082015210711667 2.1714601854453006 2.411054951012619 2.102977866850442 2.4167618108955238 2.108684726733347 C 2.4224686707784286 2.114391586616252 2.4281755306613335 2.1971410549183723 2.442442680368596 2.1971410549183723 C 2.4367358204856906 2.1828739052111104 2.4367358204856906 2.1714601854453006 2.4367358204856906 2.160046465679491 L 2.4367358204856906 2.1315121662649665 C 2.442442680368596 2.1372190261478714 2.4624166899587627 2.19428762497692 2.47097697978312 2.1914341950354674 C 2.47097697978312 2.1857273351525626 2.4738304097245725 2.1800204752696577 2.4738304097245725 2.174313615386753 C 2.4766838396660247 2.1800204752696577 2.485244129490382 2.1857273351525626 2.485244129490382 2.1828739052111104 L 2.4795372696074773 2.162899895620943 C 2.496657849256192 2.162899895620943 2.4880975594318344 2.1800204752696577 2.5080715690220017 2.1914341950354674 C 2.505218139080549 2.174313615386753 2.502364709139097 2.1657533255623957 2.502364709139097 2.1457793159722285 C 2.502364709139097 2.1343655962064187 2.5080715690220017 2.1315121662649665 2.510924998963454 2.128658736323514 M 3.723666162712864 1.5722398977402898 C 3.723666162712864 1.5750933276817423 3.7265195926543164 1.5836536175060996 3.7293730225957686 1.5836536175060996 C 3.7607607519517456 1.5237315887355984 3.7864416214248173 1.5180247288526936 3.7864416214248173 1.500904149203979 C 3.7864416214248173 1.4780767096723597 3.8235362106636988 1.4466889803163827 3.8349499304295085 1.4324218306091208 C 3.8320965004880563 1.4409821204334778 3.829243070546604 1.4581027000821924 3.8235362106636988 1.4638095599650973 L 3.8064156310149846 1.480930139613812 C 3.780734761541913 1.5351453085014082 3.7208127327714116 1.6178947768035288 3.6780112836496253 1.6749633756325775 C 3.6780112836496253 1.6692565157496726 3.6694509938252677 1.66640308580822 3.6694509938252677 1.66640308580822 C 3.66089070400091 1.6721099456911248 3.655183844118006 1.7034976750471018 3.655183844118006 1.7206182546958164 C 3.655183844118006 1.7291785445201735 3.658037274059458 1.7348854044030784 3.658037274059458 1.7348854044030784 C 3.743640172303031 1.6293084965693385 3.8663376597854855 1.4638095599650973 3.8663376597854855 1.395327241370239 C 3.8663376597854855 1.3867669515458818 3.8720445196683904 1.375353231780072 3.8720445196683904 1.3639395120142623 C 3.8720445196683904 1.355379222189905 3.8691910897269377 1.3610860820728097 3.8691910897269377 1.3468189323655477 C 3.8691910897269377 1.3468189323655477 3.8691910897269377 1.3382586425411904 3.8663376597854855 1.3382586425411904 C 3.849217080136771 1.381060091662977 3.8463636501953182 1.4010341012531438 3.8263896406051514 1.421008110843311 C 3.8263896406051514 1.4124478210189535 3.8349499304295085 1.4095943910775013 3.8349499304295085 1.4010341012531438 C 3.8349499304295085 1.395327241370239 3.812122490897889 1.4438355503749305 3.7864416214248173 1.4638095599650973 C 3.837803360370961 1.3610860820728097 3.837803360370961 1.3525257922484526 3.843510220253866 1.3525257922484526 C 3.843510220253866 1.355379222189905 3.840656790312414 1.3667929419557145 3.840656790312414 1.3724998018386194 C 3.8549239400196758 1.3582326521313575 3.857777369961128 1.3382586425411904 3.857777369961128 1.3268449227753807 L 3.857777369961128 1.315431203009571 C 3.857777369961128 1.3068709131852136 3.8663376597854855 1.2926037634779515 3.8720445196683904 1.2868969035950466 C 3.857777369961128 1.2811900437121417 3.857777369961128 1.2669228940048796 3.849217080136771 1.2669228940048796 C 3.8463636501953182 1.2669228940048796 3.840656790312414 1.269776323946332 3.8320965004880563 1.2783366137706893 L 3.809269060956437 1.3068709131852136 C 3.743640172303031 1.4067409611360486 3.4611506080992402 1.8261951625295563 3.192928193602712 1.8261951625295563 C 3.0844978558275193 1.8261951625295563 3.0074552474083034 1.7691265637005076 3.0074552474083034 1.6578427959838629 C 3.0074552474083034 1.6321619265107907 3.0131621072912083 1.6007741971548142 3.024575827057018 1.566533037857385 C 3.055963556412995 1.5722398977402898 3.095911575593329 1.5779467576231947 3.135859594773663 1.5779467576231947 C 3.4012285793287393 1.5779467576231947 3.4640040380406925 1.389620381487334 3.4640040380406925 1.2983106233608563 C 3.4640040380406925 1.224121444883093 3.432616308684716 1.1984405754100211 3.426909448801811 1.1756131358784017 C 3.421202588918906 1.1613459861711397 3.424056018860359 1.1185445370493532 3.4069354392116438 1.1185445370493532 C 3.4040820092701916 1.1185445370493532 3.4012285793287393 1.1185445370493532 3.3983751493872867 1.1213979669908056 C 3.3983751493872867 1.124251396932258 3.4012285793287393 1.1271048268737105 3.4012285793287393 1.129958256815163 C 3.3612805601484053 1.109984247224996 3.3612805601484053 1.0785965178690191 3.307065391260809 1.0785965178690191 C 3.0274292569984707 1.0785965178690191 2.790594571857919 1.435275260550573 2.790594571857919 1.6778168055740297 C 2.790594571857919 1.8033677229979368 2.83910288086261 1.923211780538939 2.94467978869635 2.017374968606869 L 2.94467978869635 2.0031078188996068 C 2.9475332186378025 2.0031078188996068 2.9960415276424937 2.0259352584312262 3.0017483875253985 2.0316421183141316 C 3.010308677349756 2.037348978197036 3.018868967174113 2.0344955482555838 3.0388429767642804 2.0402024081384886 C 3.0359895468228277 2.0344955482555838 3.021722397115566 2.0316421183141316 3.016015537232661 2.0259352584312262 C 3.0531101264715423 2.037348978197036 3.104471865417686 2.0430558380799413 3.1330061648322105 2.0430558380799413 C 3.1244458750078534 2.037348978197036 3.101618435476234 2.0344955482555838 3.101618435476234 2.0344955482555838 C 3.0673772761788047 2.0344955482555838 3.030282686939923 2.0316421183141316 3.0074552474083034 2.008814678782512 C 3.024575827057018 2.0145215386654165 3.0445498366471853 2.017374968606869 3.0616704162959 2.0259352584312262 L 3.0730841360617096 2.0259352584312262 C 3.0816444258860667 2.0259352584312262 3.0873512857689716 2.0259352584312262 3.090204715710424 2.0316421183141316 C 3.095911575593329 2.0316421183141316 3.0930581456518764 2.0259352584312262 3.095911575593329 2.0259352584312262 C 3.104471865417686 2.0259352584312262 3.1215924450664008 2.0316421183141316 3.1301527348907583 2.0316421183141316 C 3.15583360436383 2.0316421183141316 3.1672473241296397 2.0487626979628457 3.195781623544164 2.0487626979628457 C 3.2043419133685216 2.0487626979628457 3.2214624930172358 2.0487626979628457 3.235729642724498 2.0430558380799413 C 3.4525903182748827 1.9945475290752497 3.5924083854060522 1.817634872705199 3.6380632644692907 1.7605662738761503 C 3.6494769842351005 1.7491525541103405 3.643770124352196 1.6721099456911248 3.67230442376672 1.6549893660424102 C 3.6837181435325297 1.6549893660424102 3.692278433356887 1.620748206744981 3.697985293239792 1.612187916920624 C 3.709399013005602 1.6150413468620761 3.709399013005602 1.586507047447552 3.717959302829959 1.5750933276817423 C 3.717959302829959 1.5750933276817423 3.7208127327714116 1.5722398977402898 3.723666162712864 1.5722398977402898 M 3.2985051014364517 1.204147435292926 C 3.3099188212022614 1.204147435292926 3.3184791110266185 1.204147435292926 3.327039400850976 1.2070008652343784 C 3.2985051014364517 1.3239914928339283 3.104471865417686 1.4153012509604062 3.0616704162959 1.4466889803163827 C 3.0844978558275193 1.381060091662977 3.1301527348907583 1.3125777730681185 3.1786610438954495 1.2583626041805223 C 3.210048773251426 1.2326817347074503 3.2528502223732128 1.204147435292926 3.2985051014364517 1.204147435292926 M 3.7293730225957686 1.5522658881501228 C 3.7293730225957686 1.5636796079159325 3.7208127327714116 1.5693864677988374 3.717959302829959 1.5750933276817423 C 3.7151058728885067 1.5750933276817423 3.6865715734739823 1.6036276270962664 3.6865715734739823 1.6150413468620761 C 3.6694509938252677 1.6150413468620761 3.6665975638838155 1.6378687863936956 3.655183844118006 1.6435756462766005 C 3.66089070400091 1.6378687863936956 3.66089070400091 1.6293084965693385 3.6665975638838155 1.6264550666278859 C 3.66089070400091 1.6293084965693385 3.655183844118006 1.6350153564522434 3.652330414176553 1.6350153564522434 C 3.652330414176553 1.6178947768035288 3.663744133942363 1.6093344869791713 3.6694509938252677 1.5950673372719093 C 3.6865715734739823 1.5950673372719093 3.6951318632983394 1.5437055983257655 3.7122524429470545 1.5237315887355984 C 3.7151058728885067 1.5265850186770509 3.7151058728885067 1.5294384486185033 3.7151058728885067 1.5322918785599557 C 3.7151058728885067 1.5494124582086704 3.697985293239792 1.5836536175060996 3.689425003415435 1.5950673372719093 C 3.697985293239792 1.5836536175060996 3.717959302829959 1.5522658881501228 3.717959302829959 1.5551193180915752 C 3.717959302829959 1.5379987384428606 3.7407867423615784 1.500904149203979 3.752200462127388 1.495197289321074 C 3.7464936022444837 1.5066110090868838 3.735079882478674 1.5151712989112411 3.7322264525372213 1.5294384486185033 C 3.7322264525372213 1.540852168384313 3.7293730225957686 1.546559028267218 3.7293730225957686 1.5522658881501228 M 3.763614181893198 1.480930139613812 C 3.763614181893198 1.475223279730907 3.763614181893198 1.4723698497894548 3.7607607519517456 1.4723698497894548 C 3.7550538920688408 1.4723698497894548 3.7464936022444837 1.4923438593796217 3.743640172303031 1.495197289321074 C 3.743640172303031 1.4438355503749305 3.7921484813077226 1.4038875311945964 3.8178293507807943 1.375353231780072 C 3.812122490897889 1.389620381487334 3.7750279016590076 1.4324218306091208 3.7778813316004602 1.4438355503749305 C 3.7664676118346505 1.4552492701407402 3.769321041776103 1.46666298990655 3.763614181893198 1.480930139613812 M 3.2671173720804747 1.1213979669908056 C 3.26141051219757 1.1213979669908056 3.255703652314665 1.1185445370493532 3.247143362490308 1.1185445370493532 C 3.2328762127830455 1.1271048268737105 3.2157556331343313 1.1328116867566154 3.1986350534856163 1.1356651166980678 C 3.2129022031928787 1.1213979669908056 3.2528502223732128 1.109984247224996 3.26141051219757 1.1071308172835435 C 3.26141051219757 1.109984247224996 3.2642639421390225 1.1128376771664483 3.2699708020219274 1.1128376771664483 L 3.2842379517291893 1.1128376771664483 C 3.2842379517291893 1.1156911071079008 3.2728242319633796 1.1213979669908056 3.2671173720804747 1.1213979669908056 M 3.4497368883334305 1.2355351646489028 C 3.441176598509073 1.229828304765998 3.4383231685676208 1.2127077251172833 3.432616308684716 1.204147435292926 L 3.432616308684716 1.2269748748245455 C 3.424056018860359 1.2326817347074503 3.421202588918906 1.184173425702759 3.421202588918906 1.1813199957613065 C 3.432616308684716 1.1898802855856638 3.4497368883334305 1.224121444883093 3.4497368883334305 1.2355351646489028 M 3.2699708020219274 1.0985705274591862 C 3.2728242319633796 1.0985705274591862 3.2756776619048322 1.0985705274591862 3.2785310918462844 1.1014239574006386 C 3.2842379517291893 1.1014239574006386 3.287091381670642 1.1014239574006386 3.292798241553547 1.0985705274591862 C 3.295651671494999 1.0985705274591862 3.2985051014364517 1.0985705274591862 3.3042119613193566 1.1014239574006386 C 3.255703652314665 1.1014239574006386 3.207195343309974 1.1213979669908056 3.1701007540710924 1.1470788364638775 C 3.1872213337198065 1.129958256815163 3.2129022031928787 1.1128376771664483 3.2442899325488552 1.1071308172835435 C 3.2442899325488552 1.104277387342091 3.26141051219757 1.0985705274591862 3.2699708020219274 1.0985705274591862 M 3.289944811612094 1.084303377751924 C 3.295651671494999 1.084303377751924 3.301358531377904 1.084303377751924 3.307065391260809 1.0871568076933764 L 3.2585570822561176 1.0957170975177337 C 3.255703652314665 1.0900102376348288 3.2785310918462844 1.0928636675762813 3.2785310918462844 1.0871568076933764 C 3.281384521787737 1.084303377751924 3.2842379517291893 1.084303377751924 3.289944811612094 1.084303377751924 M 4.505570057382406 0.21686067555038457 C 4.411406869314476 0.4793762301640083 4.300123101597831 0.9701661800938266 4.223080493178616 1.3839135216044292 C 4.208813343471353 1.5265850186770509 4.163158464408114 1.746299124168888 4.163158464408114 1.9431857901291059 C 4.163158464408114 2.0544695578457506 4.177425614115377 2.1571930357380382 4.220227063237163 2.2313822142158015 C 4.234494212944425 2.259916513630326 4.257321652476045 2.2770370932790405 4.291562811773474 2.2855973831033976 C 4.33436426089526 2.3169851124593746 4.402846579490118 2.3369591220495414 4.459915178319167 2.3369591220495414 C 4.471328898084977 2.3369591220495414 4.4827426178507865 2.3369591220495414 4.494156337616596 2.334105692108089 C 4.494156337616596 2.3283988322251843 4.499863197499502 2.3255454022837316 4.505570057382406 2.3255454022837316 C 4.508423487323858 2.3226919723422794 4.508423487323858 2.3198385424008268 4.508423487323858 2.3169851124593746 C 4.508423487323858 2.314131682517922 4.531250926855478 2.3312522621666365 4.539811216679835 2.339812551990994 C 4.539811216679835 2.3312522621666365 4.534104356796931 2.3255454022837316 4.534104356796931 2.3169851124593746 C 4.534104356796931 2.314131682517922 4.536957786738383 2.308424822635017 4.539811216679835 2.302717962752112 C 4.54551807656274 2.302717962752112 4.554078366387097 2.305571392693565 4.554078366387097 2.3112782525764697 C 4.554078366387097 2.305571392693565 4.582612665801622 2.3255454022837316 4.594026385567432 2.339812551990994 C 4.594026385567432 2.3255454022837316 4.582612665801622 2.3198385424008268 4.582612665801622 2.305571392693565 C 4.585466095743074 2.314131682517922 4.594026385567432 2.3255454022837316 4.599733245450336 2.3255454022837316 C 4.599733245450336 2.3112782525764697 4.591172955625979 2.2970111028692073 4.591172955625979 2.294157672927755 C 4.599733245450336 2.302717962752112 4.605440105333241 2.3169851124593746 4.614000395157598 2.3169851124593746 C 4.616853825099051 2.3169851124593746 4.631120974806313 2.3312522621666365 4.642534694572123 2.3369591220495414 C 4.642534694572123 2.3283988322251843 4.642534694572123 2.3169851124593746 4.633974404747765 2.308424822635017 C 4.633974404747765 2.2970111028692073 4.6368278346892176 2.294157672927755 4.639681264630671 2.294157672927755 C 4.648241554455027 2.294157672927755 4.659655274220837 2.3226919723422794 4.671068993986647 2.3283988322251843 C 4.665362134103742 2.314131682517922 4.665362134103742 2.305571392693565 4.665362134103742 2.302717962752112 C 4.6739224239281 2.3112782525764697 4.68533614369391 2.3255454022837316 4.691043003576814 2.3255454022837316 C 4.691043003576814 2.3255454022837316 4.6824827137524565 2.305571392693565 4.6824827137524565 2.29986453281066 C 4.693896433518266 2.29986453281066 4.702456723342624 2.3198385424008268 4.705310153284076 2.3198385424008268 C 4.708163583225529 2.3169851124593746 4.708163583225529 2.3112782525764697 4.708163583225529 2.305571392693565 C 4.708163583225529 2.2798905232204927 4.679629283811004 2.245649363923064 4.6739224239281 2.2285287842743493 C 4.653948414337933 2.1343655962064187 4.645388124513575 2.0573229877872032 4.645388124513575 1.98313380930944 C 4.645388124513575 1.8804103314171523 4.659655274220837 1.7805402834663173 4.68533614369391 1.6350153564522434 L 4.691043003576814 1.6036276270962664 C 4.739551312581505 1.7006442451056492 4.942144838424628 1.8804103314171523 5.0534286061412725 1.9260652104803913 C 5.0534286061412725 1.923211780538939 5.047721746258368 1.9146514907145815 5.047721746258368 1.9060912008902244 C 5.070549185789988 1.9460392200705583 5.17897952356518 1.977426949426535 5.218927542745514 1.9859872392508924 C 5.236048122394228 1.9859872392508924 5.256022131984396 1.9945475290752497 5.275996141574563 1.9974009590167021 C 5.30738387093054 1.9974009590167021 5.335918170345064 2.017374968606869 5.364452469759588 2.020228398548322 C 5.367305899701041 2.020228398548322 5.3615990398181355 2.017374968606869 5.3615990398181355 2.0116681087239643 C 5.3615990398181355 2.008814678782512 5.367305899701041 2.0031078188996068 5.381573049408303 2.0031078188996068 C 5.3787196194668505 2.0002543889581545 5.3787196194668505 1.9916940991337972 5.3787196194668505 1.9916940991337972 C 5.39013333923266 1.9916940991337972 5.424374498530089 2.0059612488410594 5.447201938061708 2.017374968606869 C 5.464322517710423 2.020228398548322 5.504270536890758 2.0316421183141316 5.535658266246734 2.0430558380799413 C 5.30738387093054 1.8147814427637465 5.002066867195129 1.6806702355154823 4.87366251982977 1.3382586425411904 C 5.096230055263059 1.0614759382203045 5.40154705899847 0.7618657943677991 5.606994014783044 0.5478585487588667 C 5.604140584841592 0.5478585487588667 5.60128715490014 0.5392982589345094 5.598433724958688 0.5421516888759619 L 5.587020005192878 0.5535654086417716 C 5.584166575251425 0.5535654086417716 5.584166575251425 0.5507119787003192 5.584166575251425 0.5392982589345094 C 5.5784597153685205 0.5392982589345094 5.5784597153685205 0.5421516888759619 5.575606285427068 0.5421516888759619 C 5.5784597153685205 0.5392982589345094 5.569899425544163 0.536444828993057 5.567045995602711 0.536444828993057 C 5.567045995602711 0.5278845391686997 5.5156842566565665 0.5193242493443424 5.504270536890758 0.5193242493443424 L 5.490003387183495 0.5193242493443424 C 5.487149957242043 0.5193242493443424 5.48429652730059 0.5193242493443424 5.481443097359138 0.51647081940289 L 5.472882807534781 0.5193242493443424 C 5.472882807534781 0.51647081940289 5.4700293775933275 0.5136173894614375 5.467175947651875 0.5136173894614375 C 5.458615657827519 0.5136173894614375 5.455762227886066 0.5107639595199851 5.452908797944613 0.5079105295785327 C 5.450055368003161 0.5107639595199851 5.444348508120256 0.5136173894614375 5.441495078178804 0.5136173894614375 L 5.424374498530089 0.5136173894614375 C 5.415814208705732 0.5136173894614375 5.415814208705732 0.51647081940289 5.415814208705732 0.51647081940289 C 5.287409861340373 0.51647081940289 4.805180201234911 1.0728896579861142 4.805180201234911 1.0728896579861142 C 4.802326771293459 1.0757430879275667 4.799473341352007 1.084303377751924 4.793766481469102 1.084303377751924 C 4.788059621586196 1.084303377751924 4.788059621586196 1.0785965178690191 4.788059621586196 1.0757430879275667 C 4.816593921000721 0.8588824123771819 4.896489959361389 0.51647081940289 4.9621188480147955 0.22256753543328944 C 4.9621188480147955 0.22256753543328944 4.933584548600271 0.22256753543328944 4.933584548600271 0.21686067555038457 C 4.9307311186588185 0.21686067555038457 4.919317398893009 0.1683523665456934 4.919317398893009 0.1683523665456934 C 4.916463968951557 0.1683523665456934 4.893636529419937 0.16264550666278854 4.890783099478484 0.15979207672133589 C 4.882222809654127 0.15979207672133589 4.882222809654127 0.1683523665456934 4.876515949771222 0.1683523665456934 C 4.859395370122508 0.1683523665456934 4.839421360532341 0.1683523665456934 4.828007640766531 0.16264550666278854 C 4.828007640766531 0.16264550666278854 4.819447350942173 0.15408521683843102 4.813740491059269 0.15408521683843102 C 4.799473341352007 0.15408521683843102 4.788059621586196 0.16549893660424075 4.773792471878934 0.16549893660424075 C 4.75667189223022 0.16549893660424075 4.739551312581505 0.16264550666278854 4.722430732932791 0.16264550666278854 C 4.702456723342624 0.16264550666278854 4.68533614369391 0.16549893660424075 4.665362134103742 0.17976608631150315 C 4.653948414337933 0.18261951625295536 4.642534694572123 0.19688666596021775 4.628267544864861 0.19688666596021775 C 4.625414114923409 0.19688666596021775 4.622560684981956 0.19974009590166997 4.619707255040503 0.19974009590166997 C 4.614000395157598 0.19688666596021775 4.608293535274694 0.19688666596021775 4.608293535274694 0.19688666596021775 C 4.596879815508884 0.19688666596021775 4.588319525684526 0.20259352584312262 4.57975923586017 0.20259352584312262 C 4.574052375977264 0.19974009590166997 4.568345516094359 0.19974009590166997 4.562638656211455 0.19974009590166997 C 4.54551807656274 0.19974009590166997 4.531250926855478 0.2111538156674797 4.516983777148216 0.2111538156674797 C 4.516983777148216 0.21400724560893236 4.511276917265311 0.21686067555038457 4.505570057382406 0.21686067555038457 M 6.300401176253741 2.0459092680213935 C 6.50870156197977 2.0459092680213935 6.805458275890822 1.6806702355154823 6.916742043607467 1.480930139613812 C 6.919595473548919 1.4780767096723597 6.919595473548919 1.4723698497894548 6.919595473548919 1.4638095599650973 C 6.919595473548919 1.4324218306091208 6.899621463958752 1.3724998018386194 6.871087164544228 1.3724998018386194 C 6.862526874719871 1.3724998018386194 6.851113154954061 1.3782066617215243 6.842552865129703 1.3924738114287867 C 6.662786778818201 1.6350153564522434 6.463046682916531 1.8718500415927952 6.423098663736196 1.8718500415927952 C 6.420245233794744 1.8718500415927952 6.417391803853292 1.863289751768438 6.417391803853292 1.8461691721197233 C 6.417391803853292 1.7748334235834125 6.4430726733263635 1.5808001875646471 6.4430726733263635 1.4409821204334778 C 6.4430726733263635 1.3839135216044292 6.437365813443458 1.3325517826582856 6.425952093677648 1.3068709131852136 C 6.400271224204577 1.249802314356165 6.297547746312289 1.224121444883093 6.217651707951621 1.224121444883093 C 6.186263978595644 1.224121444883093 6.160583109122572 1.2269748748245455 6.140609099532405 1.2355351646489028 C 6.003644462342689 1.289750333536499 5.895214124567496 1.5037575791454314 5.849559245504257 1.5722398977402898 C 5.869533255094424 1.480930139613812 5.909481274274759 1.295457193419404 5.923748423982021 1.2155611550587357 L 5.923748423982021 1.204147435292926 C 5.923748423982021 1.1670528460540446 5.889507264684592 1.1328116867566154 5.849559245504257 1.1328116867566154 C 5.835292095796995 1.1328116867566154 5.818171516148281 1.1385185466395202 5.803904366441018 1.14993226640533 C 5.741128907729065 1.1727597059369494 5.664086299309849 1.14993226640533 5.644112289719683 1.2355351646489028 C 5.604164270539348 1.4124478210189535 5.552802531593205 1.7377388343445308 5.552802531593205 1.923211780538939 C 5.567069681300467 1.9745735194850826 5.6070177004808 1.9517460799534632 5.666939729251302 1.977426949426535 C 5.689767168782922 2.0002543889581545 5.71259460831454 2.0116681087239643 5.7325686179047075 2.0116681087239643 C 5.7639563472606845 2.0116681087239643 5.792490646675208 1.9859872392508924 5.8096112263239235 1.937478930246201 C 5.906627844333306 1.7348854044030784 5.9950841725183315 1.546559028267218 6.137755669590953 1.381060091662977 C 6.1491693893567625 1.3839135216044292 6.152022819298216 1.4038875311945964 6.152022819298216 1.4324218306091208 C 6.152022819298216 1.5237315887355984 6.114928230059333 1.712057964871459 6.114928230059333 1.8461691721197233 C 6.114928230059333 1.977426949426535 6.15772967918112 2.0459092680213935 6.300401176253741 2.0459092680213935 M 7.133661236764073 1.2754831838292369 C 7.139368096646978 1.2640694640634271 7.142221526588431 1.249802314356165 7.142221526588431 1.2383885945903552 C 7.142221526588431 1.1470788364638775 7.033791188813238 1.1271048268737105 6.962455440276927 1.1271048268737105 C 6.9510417205111175 1.1271048268737105 6.939628000745308 1.1271048268737105 6.928214280979498 1.1356651166980678 C 6.834051092911568 1.1898802855856638 6.745594764726542 1.500904149203979 6.745594764726542 1.6635496558667677 C 6.745594764726542 1.8290485924710087 6.842611382735925 1.963159799719273 7.010963749281618 1.963159799719273 C 7.210703845183288 1.963159799719273 7.38761650155334 1.7006442451056492 7.527434568684509 1.495197289321074 L 7.567382587864842 1.4381286904920256 C 7.5759428776892 1.426714970726216 7.578796307630652 1.4153012509604062 7.578796307630652 1.4038875311945964 C 7.578796307630652 1.3667929419557145 7.547408578274676 1.3296983527168331 7.518874278860151 1.3296983527168331 C 7.510313989035794 1.3296983527168331 7.501753699211437 1.3325517826582856 7.49319340938708 1.3439655024240953 C 7.467512539914008 1.3782066617215243 7.145074956529883 1.8490226020611757 7.0480583385205 1.8490226020611757 C 7.022377469047428 1.8490226020611757 7.022377469047428 1.811928012822294 7.022377469047428 1.7948074331735795 C 7.022377469047428 1.66640308580822 7.125100946939716 1.3439655024240953 7.133661236764073 1.2754831838292369 M 7.273479303895242 0.8503221225528246 C 7.273479303895242 0.7561589344848942 7.239238144597813 0.721917775187465 7.18787640565167 0.721917775187465 C 7.139368096646978 0.721917775187465 6.988136309749999 0.7732795141336088 6.988136309749999 0.8503221225528246 C 6.988136309749999 0.853175552494277 7.050911768461953 1.0044073393912558 7.1365146667055255 1.0044073393912558 C 7.204996985300384 1.0044073393912558 7.273479303895242 0.9416318806793023 7.273479303895242 0.8702961321429916 M 8.683109920157547 1.389620381487334 C 8.680256490216095 1.3867669515458818 8.680256490216095 1.3839135216044292 8.680256490216095 1.381060091662977 C 8.680256490216095 1.3696463718971672 8.694523639923357 1.3582326521313575 8.703083929747715 1.3496723623070002 C 8.705937359689166 1.3468189323655477 8.680256490216095 1.3667929419557145 8.671696200391738 1.381060091662977 C 8.660282480625927 1.381060091662977 8.665989340508833 1.395327241370239 8.660282480625927 1.4010341012531438 C 8.660282480625927 1.4067409611360486 8.657429050684476 1.4095943910775013 8.657429050684476 1.4124478210189535 C 8.657429050684476 1.4067409611360486 8.65172219080157 1.4067409611360486 8.65172219080157 1.4067409611360486 C 8.646015330918665 1.4067409611360486 8.660282480625927 1.395327241370239 8.654575620743023 1.395327241370239 C 8.660282480625927 1.389620381487334 8.657429050684476 1.381060091662977 8.66313591056738 1.3782066617215243 C 8.665989340508833 1.375353231780072 8.648868760860118 1.3839135216044292 8.646015330918665 1.3839135216044292 C 8.646015330918665 1.3839135216044292 8.657429050684476 1.3667929419557145 8.657429050684476 1.3724998018386194 L 8.668842770450285 1.3724998018386194 C 8.668842770450285 1.3667929419557145 8.671696200391738 1.3639395120142623 8.671696200391738 1.3639395120142623 C 8.671696200391738 1.3610860820728097 8.677403060274642 1.3496723623070002 8.683109920157547 1.3496723623070002 C 8.683109920157547 1.3382586425411904 8.671696200391738 1.3439655024240953 8.671696200391738 1.3382586425411904 C 8.671696200391738 1.3325517826582856 8.683109920157547 1.335405212599738 8.688816780040451 1.3296983527168331 C 8.697377069864809 1.3211380628924758 8.694523639923357 1.3068709131852136 8.714497649513524 1.3068709131852136 L 8.725911369279334 1.3068709131852136 C 8.731618229162239 1.3040174832437612 8.711644219572072 1.3040174832437612 8.711644219572072 1.2983106233608563 C 8.711644219572072 1.295457193419404 8.671696200391738 1.3068709131852136 8.671696200391738 1.3239914928339283 C 8.677403060274642 1.3239914928339283 8.680256490216095 1.3268449227753807 8.680256490216095 1.3268449227753807 C 8.674549630333189 1.3268449227753807 8.665989340508833 1.3296983527168331 8.665989340508833 1.335405212599738 C 8.657429050684476 1.335405212599738 8.660282480625927 1.3382586425411904 8.65172219080157 1.3382586425411904 C 8.65172219080157 1.3125777730681185 8.683109920157547 1.3011640533023088 8.691670209981904 1.2840434736535942 L 8.720204509396428 1.229828304765998 C 8.571826152440902 1.2983106233608563 8.400620355953755 1.4181546809018584 8.272216008588398 1.5151712989112411 C 8.266509148705492 1.3924738114287867 8.257948858881134 1.2012940053514736 8.257948858881134 1.1556391262882348 C 8.257948858881134 1.1356651166980678 8.26365571876404 1.1156911071079008 8.26365571876404 1.0985705274591862 C 8.255095428939683 1.0158210591570656 8.166639100754656 1.0072607693327083 8.092449922276893 1.0072607693327083 C 7.758598619126959 1.0072607693327083 7.387652726738143 1.335405212599738 7.387652726738143 1.5779467576231947 C 7.387652726738143 1.6407222163351483 7.4475747555086445 1.6835236654569345 7.504643354337693 1.6835236654569345 C 7.527470793869313 1.6835236654569345 7.541737943576575 1.6721099456911248 7.5560050932838365 1.6721099456911248 C 7.561711953166741 1.6721099456911248 7.564565383108194 1.6778168055740297 7.5702722429910985 1.6778168055740297 C 7.735771179595339 1.6778168055740297 7.995433304267511 1.375353231780072 8.081036202511084 1.335405212599738 C 8.083889632452536 1.389620381487334 8.083889632452536 1.4409821204334778 8.083889632452536 1.4923438593796217 L 8.083889632452536 1.6492825061595053 C 7.932657845555557 1.811928012822294 7.653021711293219 2.160046465679491 7.5246173639278595 2.4824840490636157 C 7.507496784279145 2.4824840490636157 7.458988475274454 2.6479829856678565 7.453281615391549 2.6907844347896432 C 7.461841905215906 2.676517285082381 7.496083064513336 2.536699217951212 7.521763933986407 2.533845788009759 C 7.521763933986407 2.5395526478926644 7.516057074103502 2.545259507775569 7.516057074103502 2.5509663676584737 C 7.5246173639278595 2.5509663676584737 7.521763933986407 2.533845788009759 7.530324223810765 2.533845788009759 C 7.521763933986407 2.570940377248641 7.496083064513336 2.622302116194785 7.496083064513336 2.6593967054336662 C 7.496083064513336 2.662250135375119 7.49037620463043 2.6993447246140003 7.49037620463043 2.716465304262715 C 7.49037620463043 2.7421461737357866 7.49037620463043 2.7706804731503114 7.496083064513336 2.7878010527990256 C 7.496083064513336 2.7992147725648353 7.496083064513336 2.8134819222720977 7.49037620463043 2.8134819222720977 C 7.484669344747526 2.807775062389193 7.478962484864621 2.8049216324477406 7.478962484864621 2.807775062389193 L 7.478962484864621 2.8248956420379074 C 7.476109054923168 2.8334559318622645 7.456135045333001 2.836309361803717 7.456135045333001 2.836309361803717 C 7.456135045333001 2.8391627917451694 7.458988475274454 2.847723081569527 7.458988475274454 2.853429941452432 C 7.450428185450097 2.850576511510979 7.4475747555086445 2.842016221686622 7.444721325567191 2.842016221686622 C 7.439014465684287 2.842016221686622 7.436161035742835 2.842016221686622 7.436161035742835 2.8448696516280743 C 7.436161035742835 2.8448696516280743 7.441867895625739 2.8676970911596937 7.441867895625739 2.8791108109255035 C 7.441867895625739 2.8848176708084083 7.439014465684287 2.887671100749861 7.439014465684287 2.890524530691313 C 7.433307605801382 2.8848176708084083 7.433307605801382 2.8762573809840513 7.427600745918477 2.8648436612182415 C 7.427600745918477 2.861990231276789 7.427600745918477 2.8591368013353367 7.421893886035572 2.8591368013353367 L 7.421893886035572 2.8705505211011464 C 7.421893886035572 2.8705505211011464 7.4161870261526674 2.8762573809840513 7.4161870261526674 2.8791108109255035 C 7.4161870261526674 2.9304725498716473 7.456135045333001 2.967567139110529 7.498936494454788 2.987541148700696 C 7.498936494454788 2.9846877187592433 7.50178992439624 2.9846877187592433 7.50178992439624 2.978980858876339 C 7.504643354337693 2.978980858876339 7.518910504044955 2.9846877187592433 7.5246173639278595 2.987541148700696 C 7.544591373518027 2.996101438525053 7.567418813049646 2.9989548684665057 7.5873928226398135 2.9989548684665057 C 7.6330477017030525 2.9989548684665057 7.675849150824838 2.981834288817791 7.701530020297911 2.967567139110529 C 8.078182772569631 2.7193187342041676 8.255095428939683 2.3169851124593746 8.277922868471302 1.7634197038176027 C 8.30931059782728 1.6692565157496726 8.683109920157547 1.435275260550573 8.683109920157547 1.389620381487334 M 7.5873928226398135 2.8191887821550026 C 7.598806542405623 2.5395526478926644 7.906976976082485 2.1657533255623957 8.055355333038012 1.9545995098949156 C 8.035381323447846 2.1885807650940152 7.778572628717126 2.6907844347896432 7.5873928226398135 2.8191887821550026 M 7.664435431059029 1.4495424102578354 C 7.764305479009864 1.3268449227753807 7.949778425204272 1.1556391262882348 8.046795043213654 1.1185445370493532 C 7.918390695848295 1.224121444883093 7.809960358073103 1.3582326521313575 7.664435431059029 1.4495424102578354 M 8.098156782159798 2.471070329297806 C 8.06391562286237 2.5395526478926644 8.015407313857677 2.6080349664875224 7.975459294677344 2.6679569952580238 C 7.969752434794439 2.6736638551409286 7.932657845555557 2.7250255940870725 7.918390695848295 2.7250255940870725 C 7.918390695848295 2.7278790240285247 7.921244125789748 2.730732453969977 7.921244125789748 2.7335858839114295 C 7.921244125789748 2.736439313852882 7.918390695848295 2.736439313852882 7.912683835965391 2.736439313852882 C 7.912683835965391 2.7421461737357866 7.898416686258129 2.750706463560144 7.892709826375223 2.756413323443049 C 7.898416686258129 2.7421461737357866 7.906976976082485 2.730732453969977 7.906976976082485 2.7278790240285247 C 7.901270116199581 2.7278790240285247 7.9269509856726525 2.707905014438358 7.932657845555557 2.6936378647310955 C 7.938364705438462 2.6907844347896432 7.938364705438462 2.6850775749067384 7.938364705438462 2.6793707150238335 L 7.918390695848295 2.705051584496905 C 7.918390695848295 2.6936378647310955 7.932657845555557 2.6850775749067384 7.938364705438462 2.6736638551409286 C 7.9412181353799145 2.676517285082381 7.944071565321368 2.6793707150238335 7.94692499526282 2.6793707150238335 C 7.944071565321368 2.6793707150238335 7.944071565321368 2.6822241449652857 7.944071565321368 2.6850775749067384 C 7.9554852850871765 2.6793707150238335 7.9554852850871765 2.662250135375119 7.964045574911534 2.6593967054336662 C 7.9583387150286296 2.6593967054336662 7.9583387150286296 2.662250135375119 7.9554852850871765 2.662250135375119 C 7.964045574911534 2.6365692659020468 8.015407313857677 2.5966212467217127 8.015407313857677 2.5595266574828313 L 8.035381323447846 2.5395526478926644 C 8.035381323447846 2.533845788009759 8.055355333038012 2.5053114885952352 8.06391562286237 2.49960462871233 C 8.06391562286237 2.5053114885952352 8.061062192920916 2.5053114885952352 8.058208762979465 2.5081649185366874 L 8.058208762979465 2.5224320682439494 C 8.061062192920916 2.525285498185402 8.069622482745274 2.49960462871233 8.072475912686727 2.4938977688294255 C 8.083889632452536 2.4510963197076387 8.115277361808513 2.4168551604102095 8.135251371398681 2.3740537112884232 C 8.129544511515775 2.4054414406444 8.115277361808513 2.4425360298832817 8.098156782159798 2.471070329297806 M 7.510350214220598 2.4625100394734485 C 7.496083064513336 2.5024580586537826 7.473255624981716 2.5395526478926644 7.464695335157359 2.5823540970144507 C 7.473255624981716 2.5595266574828313 7.484669344747526 2.5395526478926644 7.496083064513336 2.519578638302497 C 7.496083064513336 2.4967511987708777 7.510350214220598 2.4824840490636157 7.516057074103502 2.4682168993563534 C 7.516057074103502 2.4682168993563534 7.516057074103502 2.4625100394734485 7.510350214220598 2.4625100394734485 M 7.867028956902152 2.8134819222720977 C 7.849908377253437 2.8191887821550026 7.84134808742908 2.8391627917451694 7.82993436766327 2.8391627917451694 L 7.872735816785056 2.7992147725648353 C 7.872735816785056 2.802068202506288 7.867028956902152 2.807775062389193 7.867028956902152 2.8134819222720977 M 7.778572628717126 2.896231390574218 C 7.784279488600031 2.8848176708084083 7.789986348482936 2.8762573809840513 7.798546638307293 2.8705505211011464 C 7.795693208365841 2.8791108109255035 7.789986348482936 2.890524530691313 7.778572628717126 2.896231390574218 M 7.8185206478974605 2.856283371393884 C 7.8185206478974605 2.861990231276789 7.809960358073103 2.8705505211011464 7.798546638307293 2.8705505211011464 C 7.804253498190198 2.8648436612182415 7.815667217956007 2.853429941452432 7.824227507780365 2.850576511510979 C 7.824227507780365 2.850576511510979 7.824227507780365 2.856283371393884 7.8185206478974605 2.856283371393884 M 7.792839778424389 2.8306025019208123 C 7.792839778424389 2.8306025019208123 7.789986348482936 2.822042212096455 7.7871329185414835 2.822042212096455 C 7.784279488600031 2.8248956420379074 7.795693208365841 2.807775062389193 7.804253498190198 2.807775062389193 C 7.798546638307293 2.8134819222720977 7.795693208365841 2.8134819222720977 7.795693208365841 2.8191887821550026 M 7.821374077838913 2.8334559318622645 C 7.824227507780365 2.8277490719793597 7.82993436766327 2.8248956420379074 7.84134808742908 2.8191887821550026 C 7.835641227546175 2.8277490719793597 7.82993436766327 2.8334559318622645 7.821374077838913 2.8334559318622645 M 9.995757357042596 1.5693864677988374 C 9.984343637276787 1.5893604773890044 9.964369627686619 1.5950673372719093 9.961516197745167 1.5950673372719093 C 9.961516197745167 1.606481057037719 9.958662767803714 1.6150413468620761 9.950102477979357 1.6178947768035288 C 9.950102477979357 1.606481057037719 9.955809337862263 1.5779467576231947 9.964369627686619 1.5779467576231947 C 9.967223057628072 1.5779467576231947 9.978636777393882 1.566533037857385 9.984343637276787 1.56082617797448 C 9.992903927101144 1.5551193180915752 9.998610786984049 1.5351453085014082 10.010024506749858 1.5351453085014082 C 10.01287793669131 1.5351453085014082 9.998610786984049 1.5636796079159325 9.995757357042596 1.5693864677988374 M 9.36514933998161 1.7948074331735795 C 9.368002769923061 1.797660863115032 9.368002769923061 1.8005142930564844 9.368002769923061 1.8033677229979368 C 9.36514933998161 1.8005142930564844 9.362295910040157 1.797660863115032 9.362295910040157 1.791954003232127 L 9.362295910040157 1.726325114578721 C 9.362295910040157 1.7177648247543638 9.368002769923061 1.712057964871459 9.368002769923061 1.7149113948129115 C 9.370856199864514 1.7177648247543638 9.370856199864514 1.7206182546958164 9.370856199864514 1.726325114578721 C 9.370856199864514 1.7377388343445308 9.368002769923061 1.7577128439346978 9.368002769923061 1.7691265637005076 C 9.376563059747419 1.7691265637005076 9.370856199864514 1.7377388343445308 9.376563059747419 1.7405922642859832 L 9.376563059747419 1.7577128439346978 C 9.376563059747419 1.7748334235834125 9.376563059747419 1.7948074331735795 9.36514933998161 1.7948074331735795 M 10.08136025528617 1.4552492701407402 C 10.078506825344716 1.4523958401992876 10.075653395403265 1.4495424102578354 10.075653395403265 1.4466889803163827 C 10.075653395403265 1.435275260550573 10.089920545110527 1.421008110843311 10.104187694817789 1.4153012509604062 C 10.101334264876336 1.4238615407847632 10.087067115169074 1.4495424102578354 10.08136025528617 1.4552492701407402 M 9.399390499279038 1.6806702355154823 C 9.399390499279038 1.697790815164197 9.396537069337585 1.7034976750471018 9.393683639396134 1.7034976750471018 C 9.39083020945468 1.7034976750471018 9.387976779513227 1.6949373852227443 9.387976779513227 1.692083955281292 C 9.387976779513227 1.692083955281292 9.393683639396134 1.6806702355154823 9.399390499279038 1.6806702355154823 M 9.399390499279038 1.6721099456911248 C 9.396537069337585 1.6721099456911248 9.39083020945468 1.660696225925315 9.39083020945468 1.6549893660424102 C 9.39083020945468 1.6549893660424102 9.402243929220491 1.6549893660424102 9.405097359161942 1.652135936100958 M 9.382269919630323 1.7149113948129115 C 9.382269919630323 1.7177648247543638 9.373709629805965 1.712057964871459 9.373709629805965 1.712057964871459 C 9.373709629805965 1.7092045349300067 9.376563059747419 1.7034976750471018 9.379416489688872 1.6949373852227443 C 9.379416489688872 1.7034976750471018 9.382269919630323 1.7092045349300067 9.382269919630323 1.7149113948129115 M 9.353735620215799 1.9089446308316766 C 9.353735620215799 1.9032377709487718 9.350882190274346 1.8861171913000572 9.345175330391442 1.8804103314171523 C 9.350882190274346 1.8804103314171523 9.356589050157252 1.8946774811244147 9.356589050157252 1.9003843410073196 C 9.356589050157252 1.9032377709487718 9.353735620215799 1.9060912008902244 9.353735620215799 1.9089446308316766 M 10.181230303237005 1.2811900437121417 C 10.169816583471194 1.2811900437121417 10.166963153529743 1.2640694640634271 10.158402863705385 1.2640694640634271 L 10.158402863705385 1.2469488844147125 C 10.15269600382248 1.2555091742390698 10.149842573881028 1.2583626041805223 10.149842573881028 1.2583626041805223 C 10.144135713998123 1.2612160341219747 10.127015134349408 1.2726297538877844 10.115601414583598 1.2726297538877844 C 10.112747984642146 1.2726297538877844 10.109894554700693 1.269776323946332 10.107041124759242 1.2669228940048796 C 10.104187694817789 1.269776323946332 10.101334264876336 1.269776323946332 10.098480834934884 1.269776323946332 C 10.098480834934884 1.2640694640634271 10.084213685227622 1.2811900437121417 10.075653395403265 1.2868969035950466 C 10.072799965461812 1.2868969035950466 10.069946535520359 1.2811900437121417 10.067093105578907 1.2811900437121417 C 10.067093105578907 1.2811900437121417 10.064239675637454 1.2840434736535942 10.064239675637454 1.289750333536499 C 10.05853281575455 1.289750333536499 10.05853281575455 1.2868969035950466 10.055679385813097 1.2868969035950466 C 10.049972525930192 1.2868969035950466 10.04711909598874 1.295457193419404 10.044265666047288 1.2983106233608563 C 9.87305986956014 1.5322918785599557 9.63622518441959 1.8689966116513428 9.57630315564909 1.8775569014757 C 9.573449725707636 1.8775569014757 9.573449725707636 1.8747034715342477 9.573449725707636 1.8689966116513428 C 9.573449725707636 1.863289751768438 9.573449725707636 1.8547294619440806 9.57630315564909 1.8490226020611757 C 9.590570305356351 1.7434456942274357 9.61339774488797 1.606481057037719 9.61339774488797 1.4837835695552644 C 9.61339774488797 1.3068709131852136 9.567742865824732 1.1556391262882348 9.379416489688872 1.1556391262882348 C 9.151142094372677 1.1556391262882348 9.017030887124411 1.429568400667668 8.90860054934922 1.5893604773890044 C 8.968522578119721 1.224121444883093 9.173969533904296 0.3595321726230063 9.173969533904296 0.11699062759954959 C 9.173969533904296 0.08845632818502525 9.171116103962843 0.07133574853631064 9.165409244079939 0.0599220287705009 C 9.165409244079939 0.008560289824357081 9.105487215309438 0 9.048418616480388 0 C 9.022737747007318 0 8.994203447592792 0.0028534299414522124 8.974229438002626 0.0028534299414522124 C 8.857238810403077 0.0028534299414522124 8.774489342100955 0.12555091742390667 8.760222192393693 0.23968811508200405 C 8.691739873798834 0.7590123644263467 8.594723255789452 1.389620381487334 8.526240937194594 1.9346255003047488 C 8.523387507253142 1.9488926500120107 8.523387507253142 1.963159799719273 8.523387507253142 1.9745735194850826 C 8.523387507253142 2.0487626979628457 8.549068376726213 2.102977866850442 8.569042386316381 2.114391586616252 C 8.569042386316381 2.1058312967918944 8.563335526433475 2.0915641470846325 8.563335526433475 2.0915641470846325 C 8.563335526433475 2.074443567435918 8.574749246199286 2.0858572872017276 8.574749246199286 2.063029847670108 C 8.58045610608219 2.063029847670108 8.594723255789452 2.0801504273188227 8.594723255789452 2.0801504273188227 C 8.597576685730905 2.08871071714318 8.60328354561381 2.1115381566747993 8.606136975555263 2.1115381566747993 L 8.606136975555263 2.068736707553013 C 8.606136975555263 2.0658832776115603 8.606136975555263 2.063029847670108 8.608990405496714 2.0573229877872032 C 8.608990405496714 2.068736707553013 8.620404125262525 2.0944175770260847 8.631817845028333 2.0944175770260847 C 8.631817845028333 2.083003857260275 8.628964415086882 2.07729699737737 8.628964415086882 2.0601764177286555 C 8.628964415086882 2.0658832776115603 8.634671274969786 2.071590137494465 8.63752470491124 2.074443567435918 C 8.63752470491124 2.068736707553013 8.63752470491124 2.0573229877872032 8.643231564794144 2.0544695578457506 C 8.651791854618502 2.0573229877872032 8.648938424677048 2.074443567435918 8.651791854618502 2.07729699737737 C 8.651791854618502 2.0801504273188227 8.651791854618502 2.0915641470846325 8.654645284559953 2.0915641470846325 C 8.657498714501406 2.0915641470846325 8.657498714501406 2.08871071714318 8.657498714501406 2.0801504273188227 C 8.66320557438431 2.0801504273188227 8.666059004325763 2.0858572872017276 8.668912434267215 2.0858572872017276 C 8.668912434267215 2.07729699737737 8.668912434267215 2.068736707553013 8.668912434267215 2.0601764177286555 C 8.668912434267215 2.0658832776115603 8.703153593564645 2.0658832776115603 8.703153593564645 2.0658832776115603 C 8.700300163623192 2.068736707553013 8.671765864208668 2.074443567435918 8.671765864208668 2.0801504273188227 C 8.671765864208668 2.08871071714318 8.700300163623192 2.0972710069675373 8.703153593564645 2.0972710069675373 C 8.703153593564645 2.083003857260275 8.706007023506096 2.074443567435918 8.717420743271907 2.074443567435918 C 8.717420743271907 2.071590137494465 8.72027417321336 2.0658832776115603 8.72027417321336 2.0658832776115603 C 8.725981033096264 2.0658832776115603 8.728834463037716 2.0601764177286555 8.728834463037716 2.0544695578457506 L 8.737394752862073 2.063029847670108 L 8.740248182803526 2.0544695578457506 C 8.74310161274498 2.068736707553013 8.74310161274498 2.071590137494465 8.74595504268643 2.074443567435918 L 8.765929052276599 2.0544695578457506 C 8.76878248221805 2.0573229877872032 8.788756491808218 2.0544695578457506 8.788756491808218 2.0601764177286555 L 8.788756491808218 2.071590137494465 C 8.788756491808218 2.07729699737737 8.788756491808218 2.0801504273188227 8.79160992174967 2.0801504273188227 C 8.79160992174967 2.07729699737737 8.80302364151548 2.068736707553013 8.805877071456932 2.063029847670108 L 8.805877071456932 2.07729699737737 C 8.811583931339838 2.07729699737737 8.81443736128129 2.063029847670108 8.817290791222742 2.0544695578457506 C 8.817290791222742 2.071590137494465 8.820144221164194 2.07729699737737 8.828704510988551 2.07729699737737 C 8.828704510988551 2.0573229877872032 8.842971660695813 2.008814678782512 8.85153195052017 1.9802803793679875 C 8.85153195052017 1.977426949426535 8.854385380461624 1.9745735194850826 8.854385380461624 1.9717200895436302 C 8.865799100227433 1.9660132296607253 8.917160839173578 1.9117980607731293 8.917160839173578 1.8889706212415098 C 8.917160839173578 1.7634197038176027 9.22533127285044 1.4638095599650973 9.325201320801275 1.2983106233608563 C 9.33090818068418 1.3268449227753807 9.33090818068418 1.3610860820728097 9.33090818068418 1.3924738114287867 C 9.33090818068418 1.520878158794146 9.305227311211107 1.6721099456911248 9.305227311211107 1.7948074331735795 C 9.305227311211107 1.9859872392508924 9.393683639396134 2.063029847670108 9.504967407112778 2.063029847670108 C 9.570596295766183 2.063029847670108 9.633371754478137 2.0344955482555838 9.68473349342428 2.0002543889581545 C 9.713267792838806 1.9802803793679875 9.864499579735785 1.8547294619440806 9.861646149794332 1.8233417325881038 C 9.861646149794332 1.8062211529393892 9.884473589325951 1.7891005732906746 9.893033879150309 1.7805402834663173 C 9.893033879150309 1.797660863115032 9.878766729443047 1.7948074331735795 9.878766729443047 1.8062211529393892 C 9.878766729443047 1.817634872705199 9.972929917510976 1.6835236654569345 9.978636777393882 1.6749633756325775 C 9.978636777393882 1.66640308580822 9.978636777393882 1.660696225925315 9.98719706721824 1.6549893660424102 C 9.990050497159691 1.660696225925315 9.998610786984049 1.6407222163351483 10.001464216925502 1.6407222163351483 C 10.027145086398573 1.606481057037719 10.052825955871645 1.5722398977402898 10.075653395403265 1.5294384486185033 C 10.064239675637454 1.5294384486185033 10.061386245696003 1.5522658881501228 10.04711909598874 1.56082617797448 C 10.044265666047288 1.56082617797448 10.04711909598874 1.5722398977402898 10.041412236105835 1.5722398977402898 C 10.038558806164383 1.5722398977402898 10.004317646866953 1.606481057037719 10.001464216925502 1.6093344869791713 C 10.001464216925502 1.6036276270962664 9.998610786984049 1.6007741971548142 9.998610786984049 1.6007741971548142 C 9.995757357042596 1.6007741971548142 10.001464216925502 1.5950673372719093 10.001464216925502 1.5922139073304569 C 10.029998516340026 1.5922139073304569 10.078506825344716 1.5066110090868838 10.084213685227622 1.5066110090868838 C 10.101334264876336 1.4866369994967168 10.121308274466504 1.460956130023645 10.135575424173766 1.4381286904920256 C 10.129868564290861 1.4438355503749305 10.11845484452505 1.4552492701407402 10.115601414583598 1.4552492701407402 C 10.115601414583598 1.4552492701407402 10.11845484452505 1.4495424102578354 10.11845484452505 1.4466889803163827 C 10.104187694817789 1.4438355503749305 10.075653395403265 1.4894904294381692 10.067093105578907 1.500904149203979 C 10.067093105578907 1.500904149203979 10.049972525930192 1.5551193180915752 10.027145086398573 1.5551193180915752 C 10.041412236105835 1.5379987384428606 10.049972525930192 1.5294384486185033 10.049972525930192 1.5265850186770509 C 10.049972525930192 1.4923438593796217 10.11845484452505 1.4324218306091208 10.14128228405667 1.3924738114287867 C 10.135575424173766 1.3981806713116915 10.132721994232313 1.4038875311945964 10.121308274466504 1.4067409611360486 C 10.129868564290861 1.4010341012531438 10.138428854115219 1.389620381487334 10.138428854115219 1.381060091662977 C 10.138428854115219 1.3782066617215243 10.127015134349408 1.3924738114287867 10.121308274466504 1.3924738114287867 L 10.146989143939575 1.3496723623070002 C 10.15269600382248 1.3439655024240953 10.161256293646836 1.3296983527168331 10.161256293646836 1.3239914928339283 C 10.155549433763932 1.3296983527168331 10.15269600382248 1.3296983527168331 10.149842573881028 1.3296983527168331 C 10.158402863705385 1.3011640533023088 10.1755234433541 1.3011640533023088 10.181230303237005 1.2811900437121417 M 10.126959403295865 2.128658736323514 C 10.126959403295865 2.162899895620943 10.152640272768936 2.19428762497692 10.1669074224762 2.1971410549183723 C 10.1669074224762 2.1828739052111104 10.169760852417651 2.162899895620943 10.169760852417651 2.1429258860307763 C 10.181174572183462 2.168606755503848 10.184028002124913 2.19428762497692 10.186881432066366 2.1914341950354674 C 10.186881432066366 2.1828739052111104 10.19258829194927 2.174313615386753 10.195441721890724 2.162899895620943 C 10.266777470427034 1.6492825061595053 10.323846069256083 1.2612160341219747 10.380914668085131 0.7190643452460126 C 10.415155827382561 0.7133574853631077 10.574947904103897 0.7047971955387504 10.617749353225683 0.7047971955387504 C 10.61489592328423 0.6962369057143931 10.606335633459874 0.6933834757729407 10.606335633459874 0.6933834757729407 C 10.623456213108588 0.6933834757729407 10.646283652640207 0.6648491763584166 10.660550802347469 0.6648491763584166 C 10.600628773576968 0.6163408673537252 10.48649157591887 0.6106340074708203 10.395181817792393 0.6106340074708203 C 10.4008886776753 0.5307379691101521 10.420862687265465 0.44513507086657933 10.420862687265465 0.3167307235012198 C 10.420862687265465 0.28248956420379057 10.420862687265465 0.2511018348478138 10.415155827382561 0.2254209653747421 C 10.420862687265465 0.21400724560893236 10.420862687265465 0.20544695578457484 10.420862687265465 0.19974009590166997 C 10.420862687265465 0.14267149707262128 10.292458339900106 0.13125777730681154 10.243950030895414 0.13125777730681154 C 10.19258829194927 0.13125777730681154 10.135519693120223 0.14552492701407393 10.115545683530055 0.20544695578457484 C 10.084157954174078 0.30531700373541004 10.064183944583911 0.5278845391686997 10.044209934993745 0.602073717646463 C 9.987141336164695 0.6049271475879154 9.81593553967755 0.6077805775293679 9.81593553967755 0.6277545871195349 C 9.81593553967755 0.6933834757729407 9.930072737335648 0.7162109153045602 10.007115345754864 0.7162109153045602 L 10.02708935534503 0.7162109153045602 C 9.984287906223244 1.0900102376348288 9.964313896633076 1.395327241370239 9.935779597218552 1.7805402834663173 C 9.935779597218552 1.8005142930564844 9.932926167277099 1.8233417325881038 9.932926167277099 1.8433157421782709 C 9.932926167277099 1.9089446308316766 9.94433988704291 2.1315121662649665 9.961460466691625 2.1315121662649665 C 9.964313896633076 2.1315121662649665 9.961460466691625 2.0801504273188227 9.970020756515982 2.0801504273188227 C 9.981434476281791 2.0801504273188227 9.978581046340338 2.1258053063820617 9.995701625989053 2.1315121662649665 C 9.995701625989053 2.1115381566747993 9.995701625989053 2.0972710069675373 10.00426191581341 2.0858572872017276 C 10.00426191581341 2.0858572872017276 10.012822205637768 2.168606755503848 10.024235925403577 2.168606755503848 C 10.024235925403577 2.1714601854453006 10.02708935534503 2.102977866850442 10.032796215227934 2.108684726733347 C 10.038503075110839 2.114391586616252 10.044209934993745 2.1971410549183723 10.058477084701007 2.1971410549183723 C 10.052770224818103 2.1828739052111104 10.052770224818103 2.1714601854453006 10.052770224818103 2.160046465679491 L 10.052770224818103 2.1315121662649665 C 10.058477084701007 2.1372190261478714 10.078451094291173 2.19428762497692 10.08701138411553 2.1914341950354674 C 10.08701138411553 2.1857273351525626 10.089864814056984 2.1800204752696577 10.089864814056984 2.174313615386753 C 10.092718243998435 2.1800204752696577 10.101278533822793 2.1857273351525626 10.101278533822793 2.1828739052111104 L 10.095571673939888 2.162899895620943 C 10.112692253588603 2.162899895620943 10.104131963764246 2.1800204752696577 10.124105973354412 2.1914341950354674 C 10.121252543412961 2.174313615386753 10.118399113471508 2.1657533255623957 10.118399113471508 2.1457793159722285 C 10.118399113471508 2.1343655962064187 10.124105973354412 2.1315121662649665 10.126959403295865 2.128658736323514" fill="#150a0c" fill-rule="nonzero"></path></g><g></g><g clip-path="url(#SvgjsClipPath1025)"><g clip-path="url(#a01ecde9f-7719-493c-b95f-01324c630944b61f2a19-d557-49fb-b4ef-2c39ee7feb93)"><path d=" M 4.859421644467826 -1.31388799729215 L 4.723864130734921 -1.1493362375663736 L 4.567822370482377 -1.2632045491020136 C 4.407713884817847 -1.380009940101867 4.192177437982528 -1.4650346251043391 4.002246299296757 -1.5401184257663982 L 3.977092849526318 -1.5499840003769596 C 3.718780476135282 -1.6514262064870835 3.426277485391614 -1.7663488542406462 3.274302450551057 -2.0942474180145734 C 3.1820480314828297 -2.2935922729317952 3.2131509499115465 -2.6216414561654258 3.405040141573459 -2.7732399423567244 C 3.4468370416411043 -2.8066021526809894 3.4942821714476207 -2.8289691424469185 3.5458693363959766 -2.8342408235365317 C 4.078760984825997 -2.8890663068685067 4.446498395691427 -2.2931404145526857 4.480613703314209 -2.3731193476550994 C 4.480613703314209 -2.3731193476550994 4.738323598866431 -3.0088087773325727 4.961692257606318 -3.0402129346806954 C 5.044307031253538 -3.051810633077844 5.110579593522958 -3.0451080671210504 5.163748262798199 -3.024925059520818 L 5.16525445739523 -3.024322581682005 C 5.177981801740153 -3.0194274492416504 5.1900313585164115 -3.0139298389624822 5.201252508264302 -3.0075285119250954 C 5.20208091529267 -3.0070766535459854 5.202834012591186 -3.0064741757071727 5.203662419619553 -3.0059470075982113 C 5.212624277471896 -3.000675326508598 5.221134276945127 -2.9948011675801722 5.229192418039251 -2.9885504600024886 C 5.232355426693019 -2.9861405486472368 5.235593745076638 -2.983730637291985 5.238606134270702 -2.9811701064770304 C 5.245986487796161 -2.9749193988993463 5.252914982942509 -2.9682921426724045 5.2594669294396 -2.9612130280663527 C 5.261123743496335 -2.9594809042797654 5.263006486742626 -2.9581253291424363 5.26458799106951 -2.9563932053558495 C 5.26601887593669 -2.9547363912991136 5.267073212154612 -2.9526277188632686 5.268504097021793 -2.9508955950766813 C 5.277906835224524 -2.9396346057416594 5.2864413447254375 -2.9276762222226793 5.294034095441491 -2.915123473397165 C 5.296669935986297 -2.9107555090657713 5.299305776531103 -2.906462854464229 5.301790997616207 -2.901944270673132 C 5.309301812281754 -2.888109263738014 5.315893131348952 -2.8737945288172666 5.32152214683733 -2.8590930343875636 C 5.343286658764446 -2.8027613564585567 5.353905330673523 -2.7368653428383944 5.356691790678033 -2.6659988870480262 L 5.356917719867588 -2.6660741967778776 L 5.35699302959744 -2.6614049935270776 C 5.357871943812895 -2.6351027152876947 5.3577965845475 -2.608777211909582 5.356767100407885 -2.582480396642586 C 5.35654117121833 -2.575551901496238 5.35608931283922 -2.5686234063498894 5.355712764189962 -2.561619601473689 C 5.354674435166377 -2.5421355831774246 5.353218111812725 -2.522676090089834 5.35134479985857 -2.503254560838694 L 5.35044108310035 -2.4933136764982753 C 5.3478691293056055 -2.4682430666046913 5.344730421156982 -2.4432338400764584 5.341027366868898 -2.4183051855660747 L 5.340876747409194 -2.4171755396182935 C 5.319112235482078 -2.269643778838982 5.282587016504046 -2.1404875921434643 5.269031265130755 -2.090030073142883 C 5.249861381075837 -2.019508779510913 5.226139264947687 -1.950304599798781 5.198014189880679 -1.8828530063210844 C 5.241693833194619 -1.7783984110169044 5.30894542195211 -1.6902107173606644 5.390279930191853 -1.608424350741812 C 5.558672486140061 -1.8759998209045963 5.70138442420887 -2.158637237037703 5.7486789345556835 -2.4306559812617325 C 5.7533481378064835 -2.4573909353590553 5.757188934028916 -2.4837493408071203 5.759900084303574 -2.509731197605927 L 5.760351942682684 -2.513270754908953 C 5.775187959463452 -2.6608778254181162 5.758393889706541 -2.7952303834733954 5.709894423682102 -2.917458075022565 L 5.708162299895515 -2.921524800434552 C 5.69904982258347 -2.9441177193900363 5.688883009053502 -2.966409399426114 5.67758654957576 -2.9881739113532304 L 5.674046992272734 -2.994725857850321 C 5.662750532794992 -3.015963201668476 5.65055035655903 -3.0368993065672245 5.637220534375295 -3.0573835530868636 C 5.629388322470727 -3.06935780013327 5.62208327867512 -3.081407356909528 5.613497969472037 -3.0931556747663804 C 5.480802225473493 -3.2758570793863955 5.304426838161013 -3.344840791930474 5.058164021546236 -3.310198316198732 C 4.9841449050170645 -3.2992291329778576 4.911290266040963 -3.28148184376015 4.840518902275072 -3.2571802663831955 C 4.732298820478302 -3.221182215514124 4.634772720320462 -3.146173724581917 4.542518301252235 -3.028313997364141 L 4.349047605263439 -2.8124763116094154 L 4.2030220390811595 -2.9156506415061263 C 4.036436916649389 -3.032983200614941 3.855542945545813 -3.075909746630361 3.632249596535778 -3.0445808990120895 L 3.6314964992372616 -3.0445055892822377 C 3.201628561244249 -2.975823115657566 2.8831437137017737 -2.678349682743691 2.8199588503562696 -2.286513158325744 C 2.7515023059211527 -1.8616909722327897 3.066071047511344 -1.6068428464149282 3.2594664337702888 -1.4927486056897332 C 3.3304835090203606 -1.4508763958922357 3.4469123513709556 -1.4102091417723641 3.569968449948493 -1.3672072860270927 C 3.888453297490968 -1.2558995053064073 4.3469389328275945 -1.0509817303801658 4.38504565613251 -0.780243251563614 C 4.407262026438737 -0.6220928188752244 4.314405129531696 -0.5428669830713266 4.402818752377492 -0.555293088496843 C 4.660378028470011 -0.5915170685554694 5.023295616624939 -1.0769635871789727 5.023295616624939 -1.0769635871789727 L 5.074280303734481 -1.1474534943200831 C 5.0565825172193515 -1.1612351748829286 5.039411898813183 -1.1750921651756254 5.0210363247293905 -1.1888738457384709 C 4.966301699395712 -1.2294173839899223 4.912418427760111 -1.2710978271004065 4.859421644467842 -1.313887997292138 M 7.468225996257583 -2.248481744750679 C 7.398564496144841 -2.4632650942874816 7.2520117618536 -2.5833841134008058 7.007104520376151 -2.6265365886057803 C 6.9394010732395515 -2.638510835652187 6.864543201767047 -2.644008445931355 6.7837358616362655 -2.6433306583626903 C 6.669716930640922 -2.6425022513343226 6.553739946669436 -2.6013831388353412 6.429629511873976 -2.5177140289701985 L 6.280892795417039 -2.41792863691681 L 6.173952979027746 -2.56116774309458 C 6.090660417811861 -2.6723249043555617 5.9899713090002535 -2.752303837457976 5.863978130958504 -2.804493480245144 C 5.883332731530368 -2.707268619006711 5.887550076402059 -2.6044708377592576 5.875801758545208 -2.495572968393824 C 6.129143689766036 -2.2595522750388657 6.228627842900018 -1.9116213231244095 6.27027412350796 -1.9594430015801845 C 6.27027412350796 -1.9594430015801845 6.609845695408888 -2.4387141223558553 6.831934088741297 -2.399553062833016 C 7.4330563524168785 -2.293516963201944 6.917260012663176 -1.5340936473782691 6.830578513603969 -1.4008707352707643 C 6.706468078808509 -1.2092827825282586 6.5357409212349005 -1.0356938552202881 6.277202618654309 -0.8377798851702467 L 6.123495460027166 -0.7203720163315808 L 6.01030493606019 -0.8768656349632344 C 5.894102022899149 -1.0373506692770236 5.71539203396127 -1.1848071203264836 5.557919388841546 -1.3149423335100727 L 5.537058593672649 -1.332037642186389 C 5.518306470939597 -1.3474761368059696 5.499403728746842 -1.3631405606151057 5.480350367094383 -1.3790309136137961 C 5.478844172497351 -1.37782595793617 5.477187358440616 -1.3767716217182475 5.475605854113732 -1.3756419757704734 C 5.268428787291942 -1.5470469209127466 5.095743576742191 -1.7189790341639812 5.043102075575913 -1.9937089286626688 C 5.045060128552055 -1.9951398135298497 5.046792252338642 -1.9967966275865852 5.048674995584932 -1.9982275124537656 C 5.044156411793836 -2.0206698119495465 5.0397131377325906 -2.0431874211751793 5.036851367998229 -2.0669852958082893 C 5.0161411922890355 -2.23921864797893 5.093860833495901 -2.463566333206888 5.240413567787141 -2.592195351793445 C 5.24410374454987 -2.6940141065528267 5.232807285072129 -2.775499234252273 5.206373569894211 -2.8321321511006867 C 4.9718590711362864 -2.7629978190969053 4.776656251360903 -2.6094412799294644 4.664143514962592 -2.390214656331416 C 4.467735739509583 -2.0072646800359593 4.688167318785257 -1.6677684178648837 4.836828725512342 -1.4994511716465266 C 4.86145500717382 -1.4716618813312812 4.895118456417491 -1.4412367504712291 4.9338276575612205 -1.4090041860947382 L 4.93141774620597 -1.4054646287917125 C 4.983737815403233 -1.3632030596177114 5.036943419428792 -1.3220496924643874 5.090999063761501 -1.282031981564948 C 5.108621540546817 -1.2687774691110336 5.125340300573875 -1.2554476469272977 5.1424356092501915 -1.2421931344734136 L 5.144167733036779 -1.2447536652883682 C 5.406320902650247 -1.0384803152247977 5.73173424533907 -0.7266227239092649 5.687150885266915 -0.4740338899869516 C 5.659436904681521 -0.31678717405678203 5.546622929363803 -0.2700951415487811 5.634584693830488 -0.25458133719934883 C 5.890713085055827 -0.20939549928838064 6.283829874881252 -0.5133455689694943 6.283829874881252 -0.5133455689694943 C 6.880734793685145 -0.9480333296730099 7.697544123655748 -1.543281434420166 7.468225996257583 -2.248481744750679" fill="#ee186e" transform="matrix(1,0,0,1,0,0)" fill-rule="nonzero"></path></g></g></g><defs><clipPath id="SvgjsClipPath1025"><path d=" M 2.810386736886302 -3.318837548968243 h 4.697399174232699 v 3.068837548968243 h -4.697399174232699 Z"></path></clipPath><clipPath id="a01ecde9f-7719-493c-b95f-01324c630944b61f2a19-d557-49fb-b4ef-2c39ee7feb93"><path d=" M 2.8103192049352637 -0.2499874436784002 L 7.50776360442968 -0.2499874436784002 L 7.50776360442968 -3.3188589351316673 L 2.8103192049352637 -3.3188589351316673 Z"></path></clipPath></defs></svg>